<?xml version="1.0" encoding="utf-8"?>
<!-- Generator: Adobe Illustrator 16.0.3, SVG Export Plug-In . SVG Version: 6.00 Build 0)  -->
<!DOCTYPE svg PUBLIC "-//W3C//DTD SVG 1.1//EN" "http://www.w3.org/Graphics/SVG/1.1/DTD/svg11.dtd">
<svg version="1.1" id="Layer_1" xmlns="http://www.w3.org/2000/svg" xmlns:xlink="http://www.w3.org/1999/xlink" x="0px" y="0px"
	 width="750px" height="500px" viewBox="0 0 750 500" enable-background="new 0 0 750 500" xml:space="preserve">
<g id="BACKGROUND">
	<rect x="-0.241" y="1.769" fill="#232323" width="750" height="500"/>
</g>
<g id="OBJECTS">
	<g>
		
			<line fill="none" stroke="#FFFFFF" stroke-width="1.5" stroke-linecap="round" stroke-linejoin="round" stroke-miterlimit="10" x1="322.333" y1="80.101" x2="307.287" y2="77.937"/>
		
			<line fill="none" stroke="#FFFFFF" stroke-width="1.5" stroke-linecap="round" stroke-linejoin="round" stroke-miterlimit="10" x1="673.201" y1="477.695" x2="685.115" y2="487.239"/>
		
			<line fill="none" stroke="#FFFFFF" stroke-width="1.5" stroke-linecap="round" stroke-linejoin="round" stroke-miterlimit="10" x1="441.996" y1="0" x2="448.604" y2="13.846"/>
		
			<line fill="none" stroke="#FFFFFF" stroke-width="1.5" stroke-linecap="round" stroke-linejoin="round" stroke-miterlimit="10" x1="9.111" y1="260.126" x2="21.027" y2="269.669"/>
		
			<line fill="none" stroke="#FFFFFF" stroke-width="1.5" stroke-linecap="round" stroke-linejoin="round" stroke-miterlimit="10" x1="694.26" y1="288.327" x2="708.576" y2="283.167"/>
		
			<line fill="none" stroke="#FFFFFF" stroke-width="1.5" stroke-linecap="round" stroke-linejoin="round" stroke-miterlimit="10" x1="508.732" y1="479.057" x2="512.172" y2="494.033"/>
		
			<line fill="none" stroke="#FFFFFF" stroke-width="1.5" stroke-linecap="round" stroke-linejoin="round" stroke-miterlimit="10" x1="93.13" y1="450.939" x2="86.431" y2="464.737"/>
		
			<line fill="none" stroke="#FFFFFF" stroke-width="1.5" stroke-linecap="round" stroke-linejoin="round" stroke-miterlimit="10" x1="711.926" y1="85.415" x2="705.225" y2="99.216"/>
		
			<ellipse fill="none" stroke="#FFFFFF" stroke-width="1.5" stroke-linecap="round" stroke-linejoin="round" stroke-miterlimit="10" cx="70.04" cy="192.132" rx="3.372" ry="3.412"/>
		
			<path fill="none" stroke="#FFFFFF" stroke-width="1.5" stroke-linecap="round" stroke-linejoin="round" stroke-miterlimit="10" d="
			M747.762,159.184c1.861,0,3.371,1.528,3.371,3.412c0,1.883-1.51,3.411-3.371,3.411c-1.865,0-3.373-1.528-3.373-3.411
			C744.389,160.712,745.896,159.184,747.762,159.184z"/>
		
			<ellipse fill="none" stroke="#FFFFFF" stroke-width="1.5" stroke-linecap="round" stroke-linejoin="round" stroke-miterlimit="10" cx="115.304" cy="28.345" rx="3.372" ry="3.411"/>
		
			<ellipse fill="none" stroke="#FFFFFF" stroke-width="1.5" stroke-linecap="round" stroke-linejoin="round" stroke-miterlimit="10" cx="15.069" cy="406.581" rx="3.373" ry="3.412"/>
		
			<ellipse fill="none" stroke="#FFFFFF" stroke-width="1.5" stroke-linecap="round" stroke-linejoin="round" stroke-miterlimit="10" cx="647.279" cy="21.522" rx="3.373" ry="3.412"/>
		
			<ellipse fill="none" stroke="#FFFFFF" stroke-width="1.5" stroke-linecap="round" stroke-linejoin="round" stroke-miterlimit="10" cx="363.153" cy="31.756" rx="3.372" ry="3.412"/>
		
			<ellipse fill="none" stroke="#FFFFFF" stroke-width="1.5" stroke-linecap="round" stroke-linejoin="round" stroke-miterlimit="10" cx="150.92" cy="489.956" rx="3.372" ry="3.411"/>
		
			<ellipse fill="none" stroke="#FFFFFF" stroke-width="1.5" stroke-linecap="round" stroke-linejoin="round" stroke-miterlimit="10" cx="711.926" cy="381.062" rx="3.373" ry="3.412"/>
		
			<line fill="none" stroke="#FFFFFF" stroke-width="3" stroke-linecap="round" stroke-linejoin="round" stroke-miterlimit="10" x1="725.83" y1="444.29" x2="725.83" y2="444.29"/>
		
			<line fill="none" stroke="#FFFFFF" stroke-width="3" stroke-linecap="round" stroke-linejoin="round" stroke-miterlimit="10" x1="21.027" y1="162.596" x2="21.027" y2="162.596"/>
		
			<line fill="none" stroke="#FFFFFF" stroke-width="3" stroke-linecap="round" stroke-linejoin="round" stroke-miterlimit="10" x1="560.846" y1="21.521" x2="560.846" y2="21.521"/>
		
			<line fill="none" stroke="#FFFFFF" stroke-width="3" stroke-linecap="round" stroke-linejoin="round" stroke-miterlimit="10" x1="0" y1="482.468" x2="0" y2="482.468"/>
		
			<line fill="none" stroke="#FFFFFF" stroke-width="3" stroke-linecap="round" stroke-linejoin="round" stroke-miterlimit="10" x1="242.293" y1="18.111" x2="242.293" y2="18.111"/>
		
			<line fill="none" stroke="#FFFFFF" stroke-width="3" stroke-linecap="round" stroke-linejoin="round" stroke-miterlimit="10" x1="735.117" y1="21.521" x2="735.117" y2="21.521"/>
		
			<line fill="none" stroke="#FFFFFF" stroke-width="3" stroke-linecap="round" stroke-linejoin="round" stroke-miterlimit="10" x1="379.324" y1="498.704" x2="379.324" y2="498.704"/>
		
			<line fill="none" stroke="#FFFFFF" stroke-width="1.5" stroke-linecap="round" stroke-linejoin="round" stroke-miterlimit="10" x1="34.83" y1="18.537" x2="26.399" y2="31.331"/>
	</g>
	<g>
		<path fill="#C4C4C4" d="M223.378,380.145c62.545,60.076,193,69.051,249.565,44.213c73.51-32.281,121.352-145.598,71.299-203.814
			c-28.498-33.148-86.508-44.897-150.625,7.157c-59.528,48.329-81.705,9.541-134.322,13.11
			C192.709,245.327,169.926,328.803,223.378,380.145z"/>
	</g>
	<g>
		<g>
			<g>
				<path fill="#D0BBF9" d="M452.973,223.307c-0.654-7.173,2.406-17.093,6.9-16.2c4.492,0.894-1.117,8.681,2.611,16.74
					L452.973,223.307z"/>
				<g>
					<path fill="#00CFBE" d="M454.213,227.681c0,0,7.26-8.054,11.033-22.408c3.771-14.356,20.477-14.809,23.576,3.323
						c3.098,18.134-11.451,43.594-11.451,43.594L454.213,227.681z"/>
					
						<path fill="none" stroke="#011635" stroke-width="1.5" stroke-linecap="round" stroke-linejoin="round" stroke-miterlimit="10" d="
						M478.348,209.519c0,0,0.939,17.247-12.766,30.195"/>
				</g>
				
					<path fill="none" stroke="#011635" stroke-width="1.5" stroke-linecap="round" stroke-linejoin="round" stroke-miterlimit="10" d="
					M499.262,213.854c0,0,2.426,9.424-3.84,16.515"/>
			</g>
			<g>
				
					<path fill="none" stroke="#011635" stroke-width="1.5" stroke-linecap="round" stroke-linejoin="round" stroke-miterlimit="10" d="
					M299.643,364.958c0,0,1.582,8.5-2.459,15.98"/>
				
					<path fill="none" stroke="#011635" stroke-width="1.5" stroke-linecap="round" stroke-linejoin="round" stroke-miterlimit="10" d="
					M291.895,364.958c0,0-0.226,6.789-3.328,12.629"/>
			</g>
			<g>
				<g>
					<path fill="#00CFBE" d="M367.391,370.585c9.816,14.072,19.785,13.628,31.775,13.579c11.988-0.052,25.602,3.706,31.627,12.368
						c6.025,8.66,24.24,11.052,23.42-9.75c-0.822-20.804-27.67-39.435-49.307-38.62c-21.637,0.819-36.187-2.856-36.187-2.856
						L367.391,370.585z"/>
					
						<path fill="none" stroke="#011635" stroke-width="1.5" stroke-linecap="round" stroke-linejoin="round" stroke-miterlimit="10" d="
						M368.079,357.008c33.642,19.475,57.169,6.729,71.58,27.156"/>
				</g>
				
					<path fill="none" stroke="#011635" stroke-width="1.5" stroke-linecap="round" stroke-linejoin="round" stroke-miterlimit="10" d="
					M462.484,386.525c0,0,5.404,4.159,5.227,14.812"/>
			</g>
			<g>
				<path fill="#D0BBF9" d="M301.216,225.039c-4.235-9.793-3.191-25.206,2.821-25.056c6.011,0.15,0.084,16.567,8.032,23.621
					L301.216,225.039z"/>
				<g>
					<path fill="#00CFBE" d="M280.007,244.408c0,0-23.644-48.202-1.011-55.682c19.027-6.289,15.022,35.625,35.6,44.898
						L280.007,244.408z"/>
					
						<path fill="none" stroke="#011635" stroke-width="1.5" stroke-linecap="round" stroke-linejoin="round" stroke-miterlimit="10" d="
						M281.017,201.418c0,0,2.713,21.458,15.098,37.967"/>
				</g>
				
					<path fill="none" stroke="#011635" stroke-width="1.5" stroke-linecap="round" stroke-linejoin="round" stroke-miterlimit="10" d="
					M267.276,298.851c0,0,11.459,3.616,21.29,1.485"/>
				
					<path fill="none" stroke="#011635" stroke-width="1.5" stroke-linecap="round" stroke-linejoin="round" stroke-miterlimit="10" d="
					M262.426,230.729c0,0,6.668,3.076,9.902,10.796"/>
				
					<path fill="none" stroke="#011635" stroke-width="1.5" stroke-linecap="round" stroke-linejoin="round" stroke-miterlimit="10" d="
					M323.623,208.445c0,0-3.063,5.994,0,16.371"/>
			</g>
		</g>
		<g>
			<g>
				<g>
					
						<path fill="#011635" stroke="#011635" stroke-width="1.5" stroke-linecap="round" stroke-linejoin="round" stroke-miterlimit="10" d="
						M292.296,221.379h177.577c3.387,0,6.131,3.078,6.131,6.875v132.209c0,3.797-2.744,6.877-6.131,6.877H292.296
						c-3.385,0-6.13-3.08-6.13-6.877V228.254C286.167,224.457,288.911,221.379,292.296,221.379z"/>
					
						<path fill="#FFFFFF" stroke="#011635" stroke-width="1.5" stroke-linecap="round" stroke-linejoin="round" stroke-miterlimit="10" d="
						M288.311,221.379h177.578c3.385,0,6.129,3.078,6.129,6.875v132.209c0,3.797-2.742,6.877-6.129,6.877H288.311
						c-3.385,0-6.13-3.08-6.13-6.877V228.254C282.181,224.457,284.926,221.379,288.311,221.379z"/>
					
						<path fill="#F4DC90" stroke="#011635" stroke-width="1.5" stroke-linecap="round" stroke-linejoin="round" stroke-miterlimit="10" d="
						M288.311,367.34h177.578c3.385,0,6.129-3.082,6.129-6.877v-7.009H282.181v7.009C282.181,364.26,284.926,367.34,288.311,367.34z
						"/>
					
						<ellipse fill="#D0D0D6" stroke="#011635" stroke-width="1.5" stroke-linecap="round" stroke-linejoin="round" stroke-miterlimit="10" cx="377.1" cy="360.396" rx="3.021" ry="3.388"/>
					
						<path fill="#F4DC90" stroke="#011635" stroke-width="1.5" stroke-linecap="round" stroke-linejoin="round" stroke-miterlimit="10" d="
						M465.889,221.379H288.311c-3.385,0-6.13,3.078-6.13,6.875h189.837C472.018,224.457,469.275,221.379,465.889,221.379z"/>
				</g>
				<g>
					<g>
						<rect x="294.831" y="239.714" fill="#D0BBF9" width="68.64" height="52.297"/>
						<rect x="294.831" y="290.138" fill="#D19CE8" width="68.64" height="1.873"/>
					</g>
					<g>
						
							<rect x="298.067" y="243.344" fill="none" stroke="#011635" stroke-width="1.5" stroke-linecap="round" stroke-linejoin="round" stroke-miterlimit="10" width="3.149" height="3.531"/>
						
							<line fill="none" stroke="#011635" stroke-width="1.5" stroke-linecap="round" stroke-linejoin="round" stroke-miterlimit="10" x1="307.515" y1="246.875" x2="304.365" y2="246.875"/>
					</g>
					<g>
						<g>
							
								<polyline fill="none" stroke="#011635" stroke-width="1.5" stroke-linecap="round" stroke-linejoin="round" stroke-miterlimit="10" points="
								306.486,277.19 315.726,257.121 324.752,272.38 335.405,260.34 342.247,269.328 353.092,275.15 							"/>
							
								<ellipse fill="#FFFFFF" stroke="#011635" stroke-width="1.5" stroke-linecap="round" stroke-linejoin="round" stroke-miterlimit="10" cx="306.486" cy="277.19" rx="1.129" ry="1.267"/>
							
								<ellipse fill="#FFFFFF" stroke="#011635" stroke-width="1.5" stroke-linecap="round" stroke-linejoin="round" stroke-miterlimit="10" cx="335.406" cy="260.339" rx="1.127" ry="1.266"/>
							
								<ellipse fill="#FFFFFF" stroke="#011635" stroke-width="1.5" stroke-linecap="round" stroke-linejoin="round" stroke-miterlimit="10" cx="324.752" cy="272.38" rx="1.129" ry="1.267"/>
							
								<ellipse fill="#FFFFFF" stroke="#011635" stroke-width="1.5" stroke-linecap="round" stroke-linejoin="round" stroke-miterlimit="10" cx="342.247" cy="269.328" rx="1.129" ry="1.266"/>
							
								<ellipse fill="#FFFFFF" stroke="#011635" stroke-width="1.5" stroke-linecap="round" stroke-linejoin="round" stroke-miterlimit="10" cx="315.726" cy="257.122" rx="1.129" ry="1.267"/>
							
								<ellipse fill="#FFFFFF" stroke="#011635" stroke-width="1.5" stroke-linecap="round" stroke-linejoin="round" stroke-miterlimit="10" cx="353.092" cy="275.151" rx="1.129" ry="1.266"/>
						</g>
						
							<line fill="none" stroke="#011635" stroke-width="1.5" stroke-linecap="round" stroke-linejoin="round" stroke-miterlimit="10" x1="306.486" y1="283.566" x2="353.092" y2="283.566"/>
					</g>
					<g>
						<rect x="342.136" y="243.344" fill="#FFFFFF" width="17.894" height="3.531"/>
						<rect x="350.901" y="248.556" fill="#8791FF" width="9.127" height="3.532"/>
					</g>
				</g>
				<g>
					<g>
						<rect x="294.831" y="296.707" fill="#D0BBF9" width="68.64" height="45.288"/>
						<rect x="294.831" y="340.122" fill="#D19CE8" width="68.64" height="1.875"/>
					</g>
					<g>
						
							<rect x="298.067" y="300.336" fill="none" stroke="#011635" stroke-width="1.5" stroke-linecap="round" stroke-linejoin="round" stroke-miterlimit="10" width="3.149" height="3.533"/>
						
							<line fill="none" stroke="#011635" stroke-width="1.5" stroke-linecap="round" stroke-linejoin="round" stroke-miterlimit="10" x1="307.515" y1="303.869" x2="304.365" y2="303.869"/>
					</g>
					<g>
						<rect x="301.216" y="308.6" fill="#8791FF" width="58.813" height="2.533"/>
						<rect x="301.216" y="314.597" fill="#FFFFFF" width="58.813" height="2.533"/>
						<rect x="301.216" y="320.594" fill="#FFFFFF" width="36.446" height="2.532"/>
						<rect x="301.216" y="326.592" fill="#8791FF" width="26.367" height="2.531"/>
						<rect x="330.403" y="326.592" fill="#8791FF" width="14.813" height="2.531"/>
						<rect x="301.216" y="332.588" fill="#FFFFFF" width="16.04" height="2.532"/>
					</g>
				</g>
				<g>
					<g>
						<rect x="370.723" y="239.714" fill="#D0BBF9" width="88.644" height="12.948"/>
						<rect x="370.723" y="252.662" fill="#D19CE8" width="88.644" height="1.874"/>
					</g>
					<g>
						
							<line fill="none" stroke="#011635" stroke-width="1.5" stroke-linecap="round" stroke-linejoin="round" stroke-miterlimit="10" x1="373.959" y1="243.344" x2="377.107" y2="243.344"/>
						
							<line fill="none" stroke="#011635" stroke-width="1.5" stroke-linecap="round" stroke-linejoin="round" stroke-miterlimit="10" x1="380.256" y1="243.344" x2="383.406" y2="243.344"/>
						
							<rect x="373.959" y="241.974" fill="none" stroke="#011635" stroke-width="1.5" stroke-linecap="round" stroke-linejoin="round" stroke-miterlimit="10" width="3.148" height="1.37"/>
					</g>
					<g>
						<rect x="377.107" y="246.439" fill="#8791FF" width="31.49" height="2.533"/>
						<rect x="410.52" y="246.439" fill="#FFFFFF" width="13.215" height="2.533"/>
					</g>
				</g>
				<g>
					<g>
						<rect x="370.723" y="257.16" fill="#D0BBF9" width="88.644" height="12.949"/>
						<rect x="370.723" y="270.109" fill="#D19CE8" width="88.644" height="1.872"/>
					</g>
					<g>
						
							<line fill="none" stroke="#011635" stroke-width="1.5" stroke-linecap="round" stroke-linejoin="round" stroke-miterlimit="10" x1="373.959" y1="260.792" x2="377.107" y2="260.792"/>
						
							<line fill="none" stroke="#011635" stroke-width="1.5" stroke-linecap="round" stroke-linejoin="round" stroke-miterlimit="10" x1="380.256" y1="260.792" x2="383.406" y2="260.792"/>
						
							<rect x="373.959" y="259.422" fill="none" stroke="#011635" stroke-width="1.5" stroke-linecap="round" stroke-linejoin="round" stroke-miterlimit="10" width="3.148" height="1.37"/>
					</g>
					<g>
						<rect x="377.107" y="263.888" fill="#8791FF" width="14.395" height="2.532"/>
						<rect x="409.107" y="263.888" fill="#8791FF" width="42.033" height="2.532"/>
						<rect x="393.898" y="263.888" fill="#FFFFFF" width="13.215" height="2.532"/>
					</g>
				</g>
				<g>
					<g>
						<rect x="370.723" y="274.608" fill="#D0BBF9" width="88.644" height="12.948"/>
						<rect x="370.723" y="287.557" fill="#D19CE8" width="88.644" height="1.873"/>
					</g>
					<g>
						
							<line fill="none" stroke="#011635" stroke-width="1.5" stroke-linecap="round" stroke-linejoin="round" stroke-miterlimit="10" x1="373.959" y1="278.239" x2="377.107" y2="278.239"/>
						
							<line fill="none" stroke="#011635" stroke-width="1.5" stroke-linecap="round" stroke-linejoin="round" stroke-miterlimit="10" x1="380.256" y1="278.239" x2="383.406" y2="278.239"/>
						
							<rect x="373.959" y="276.87" fill="none" stroke="#011635" stroke-width="1.5" stroke-linecap="round" stroke-linejoin="round" stroke-miterlimit="10" width="3.148" height="1.369"/>
					</g>
					<rect x="377.107" y="281.336" fill="#8791FF" width="31.49" height="2.534"/>
				</g>
				<g>
					<g>
						<rect x="370.723" y="292.058" fill="#D0BBF9" width="88.644" height="12.947"/>
						<rect x="370.723" y="305.005" fill="#D19CE8" width="88.644" height="1.875"/>
					</g>
					<g>
						
							<line fill="none" stroke="#011635" stroke-width="1.5" stroke-linecap="round" stroke-linejoin="round" stroke-miterlimit="10" x1="373.959" y1="295.688" x2="377.107" y2="295.688"/>
						
							<line fill="none" stroke="#011635" stroke-width="1.5" stroke-linecap="round" stroke-linejoin="round" stroke-miterlimit="10" x1="380.256" y1="295.688" x2="383.406" y2="295.688"/>
						
							<rect x="373.959" y="294.317" fill="none" stroke="#011635" stroke-width="1.5" stroke-linecap="round" stroke-linejoin="round" stroke-miterlimit="10" width="3.148" height="1.37"/>
					</g>
					<g>
						<rect x="377.107" y="298.783" fill="#8791FF" width="22.059" height="2.533"/>
						<rect x="401.719" y="298.783" fill="#FFFFFF" width="37.133" height="2.533"/>
						<rect x="441.641" y="298.783" fill="#FFFFFF" width="6.113" height="2.533"/>
					</g>
				</g>
				<g>
					<g>
						<rect x="370.723" y="312.413" fill="#D0BBF9" width="88.644" height="29.582"/>
						<rect x="370.723" y="340.122" fill="#D19CE8" width="88.644" height="1.875"/>
					</g>
					<g>
						
							<rect x="373.959" y="316.043" fill="none" stroke="#011635" stroke-width="1.5" stroke-linecap="round" stroke-linejoin="round" stroke-miterlimit="10" width="3.148" height="3.532"/>
						
							<line fill="none" stroke="#011635" stroke-width="1.5" stroke-linecap="round" stroke-linejoin="round" stroke-miterlimit="10" x1="383.406" y1="319.575" x2="380.256" y2="319.575"/>
					</g>
					<g>
						<rect x="387.531" y="320.064" fill="#8791FF" width="12.73" height="14.279"/>
						<g>
							
								<line fill="none" stroke="#011635" stroke-width="1.5" stroke-linecap="round" stroke-linejoin="round" stroke-miterlimit="10" x1="390.746" y1="330.742" x2="397.051" y2="323.668"/>
							
								<line fill="none" stroke="#011635" stroke-width="1.5" stroke-linecap="round" stroke-linejoin="round" stroke-miterlimit="10" x1="397.051" y1="330.742" x2="390.746" y2="323.668"/>
						</g>
					</g>
					<g>
						<rect x="404.906" y="320.064" fill="#8791FF" width="12.73" height="14.279"/>
						<g>
							
								<line fill="none" stroke="#011635" stroke-width="1.5" stroke-linecap="round" stroke-linejoin="round" stroke-miterlimit="10" x1="408.119" y1="330.742" x2="414.426" y2="323.668"/>
						</g>
					</g>
					<g>
						<rect x="422.281" y="320.064" fill="#8791FF" width="12.73" height="14.279"/>
						
							<rect x="426.082" y="324" fill="none" stroke="#011635" stroke-width="1.5" stroke-linecap="round" stroke-linejoin="round" stroke-miterlimit="10" width="5.711" height="6.408"/>
					</g>
					<g>
						<rect x="439.656" y="320.064" fill="#8791FF" width="12.729" height="14.279"/>
						
							<line fill="none" stroke="#011635" stroke-width="1.5" stroke-linecap="round" stroke-linejoin="round" stroke-miterlimit="10" x1="443.164" y1="324" x2="443.164" y2="324"/>
						
							<line fill="none" stroke="#011635" stroke-width="1.5" stroke-linecap="round" stroke-linejoin="round" stroke-miterlimit="10" x1="448.879" y1="324" x2="448.879" y2="324"/>
						
							<line fill="none" stroke="#011635" stroke-width="1.5" stroke-linecap="round" stroke-linejoin="round" stroke-miterlimit="10" x1="443.164" y1="330.408" x2="443.164" y2="330.408"/>
						
							<line fill="none" stroke="#011635" stroke-width="1.5" stroke-linecap="round" stroke-linejoin="round" stroke-miterlimit="10" x1="448.879" y1="330.408" x2="448.879" y2="330.408"/>
					</g>
				</g>
			</g>
			<g>
				<g>
					<g>
						<g opacity="0.45">
							<path fill="#8791FF" d="M513.381,395.046h-73.766c-2.031,0-3.678-1.845-3.678-4.124V308.18c0-2.276,1.646-4.125,3.678-4.125
								h73.766c2.031,0,3.678,1.848,3.678,4.125v82.742C517.059,393.201,515.412,395.046,513.381,395.046z"/>
							
								<path fill="none" stroke="#8791FF" stroke-width="1.5" stroke-linecap="round" stroke-linejoin="round" stroke-miterlimit="10" d="
								M513.381,395.046h-73.766c-2.031,0-3.678-1.845-3.678-4.124V308.18c0-2.276,1.646-4.125,3.678-4.125h73.766
								c2.031,0,3.678,1.848,3.678,4.125v82.742C517.059,393.201,515.412,395.046,513.381,395.046z"/>
						</g>
						<g>
							<path fill="#FFFFFF" d="M508.238,389.842h-73.768c-2.031,0-3.678-1.847-3.678-4.126v-82.741c0-2.277,1.646-4.126,3.678-4.126
								h73.768c2.029,0,3.676,1.849,3.676,4.126v82.742C511.914,387.995,510.268,389.842,508.238,389.842z"/>
							
								<path fill="none" stroke="#011635" stroke-width="1.5" stroke-linecap="round" stroke-linejoin="round" stroke-miterlimit="10" d="
								M508.238,389.842h-73.768c-2.031,0-3.678-1.847-3.678-4.126v-82.741c0-2.277,1.646-4.126,3.678-4.126h73.768
								c2.029,0,3.676,1.849,3.676,4.126v82.742C511.914,387.995,510.268,389.842,508.238,389.842z"/>
						</g>
					</g>
					<g>
						
							<line fill="none" stroke="#011635" stroke-width="1.5" stroke-linecap="round" stroke-linejoin="round" stroke-miterlimit="10" x1="435.561" y1="307.051" x2="438.465" y2="303.795"/>
						
							<line fill="none" stroke="#011635" stroke-width="1.5" stroke-linecap="round" stroke-linejoin="round" stroke-miterlimit="10" x1="435.561" y1="303.795" x2="438.465" y2="307.051"/>
					</g>
					<g>
						<g>
							<g>
								<path fill="#8791FF" d="M446.598,329.365c-3.404,0-6.166,3.097-6.166,6.916v1.675h12.334v-1.675
									C452.766,332.462,450.004,329.365,446.598,329.365z"/>
								<ellipse fill="#8791FF" cx="446.598" cy="324.06" rx="3.5" ry="3.924"/>
							</g>
							
								<rect x="438.465" y="313.683" fill="none" stroke="#011635" stroke-width="1.5" stroke-linecap="round" stroke-linejoin="round" stroke-miterlimit="10" width="16.268" height="24.273"/>
						</g>
						<g>
							<rect x="458.766" y="329.211" fill="#8791FF" width="17.893" height="3.531"/>
							<rect x="458.766" y="334.424" fill="#8791FF" width="9.127" height="3.532"/>
						</g>
						
							<ellipse fill="none" stroke="#011635" stroke-width="1.5" stroke-linecap="round" stroke-linejoin="round" stroke-miterlimit="10" cx="502.322" cy="335.802" rx="1.922" ry="2.154"/>
					</g>
					<g>
						<rect x="438.465" y="343.608" fill="#D0BBF9" width="65.779" height="14.508"/>
						<g>
							<rect x="441.949" y="346.896" fill="#8791FF" width="58.811" height="2.533"/>
							<rect x="441.949" y="352.895" fill="#FFFFFF" width="22.23" height="2.53"/>
						</g>
					</g>
					<g>
						<rect x="438.465" y="363.77" fill="#D0BBF9" width="65.779" height="14.507"/>
						<g>
							<rect x="441.949" y="367.056" fill="#8791FF" width="26.908" height="2.533"/>
							<rect x="470.848" y="367.056" fill="#FFFFFF" width="29.912" height="2.533"/>
							<rect x="454.213" y="373.053" fill="#FFFFFF" width="21.486" height="2.531"/>
							<rect x="441.949" y="373.053" fill="#FFFFFF" width="10.273" height="2.531"/>
						</g>
					</g>
				</g>
				<g>
					
						<path fill="none" stroke="#011635" stroke-width="1.5" stroke-linecap="round" stroke-linejoin="round" stroke-miterlimit="10" d="
						M433.729,346.934c-7.816,0-7.396-7.357-16.051-7.357l0,0c-2.326,0-4.215-2.119-4.215-4.729v-1.885"/>
					
						<path fill="#011635" stroke="#011635" stroke-width="1.5" stroke-linecap="round" stroke-linejoin="round" stroke-miterlimit="10" d="
						M436.631,346.934L436.631,346.934c0-0.898-0.65-1.628-1.451-1.628l0,0c-0.803,0-1.451,0.729-1.451,1.628l0,0
						c0,0.9,0.648,1.628,1.451,1.628l0,0C435.98,348.562,436.631,347.834,436.631,346.934z"/>
					
						<path fill="#011635" stroke="#011635" stroke-width="1.5" stroke-linecap="round" stroke-linejoin="round" stroke-miterlimit="10" d="
						M414.914,331.334L414.914,331.334c0-0.899-0.65-1.628-1.453-1.628l0,0c-0.801,0-1.451,0.729-1.451,1.628l0,0
						c0,0.898,0.65,1.627,1.451,1.627l0,0C414.264,332.963,414.914,332.232,414.914,331.334z"/>
				</g>
			</g>
			<g>
				<g>
					<g>
						<g opacity="0.45">
							<path fill="#8791FF" d="M524.193,294.138h-49.295c-2.031,0-3.678-1.846-3.678-4.125V234.72c0-2.277,1.646-4.124,3.678-4.124
								h49.295c2.031,0,3.678,1.847,3.678,4.124v55.293C527.871,292.292,526.225,294.138,524.193,294.138z"/>
							
								<path fill="none" stroke="#8791FF" stroke-width="1.5" stroke-linecap="round" stroke-linejoin="round" stroke-miterlimit="10" d="
								M524.193,294.138h-49.295c-2.031,0-3.678-1.846-3.678-4.125V234.72c0-2.277,1.646-4.124,3.678-4.124h49.295
								c2.031,0,3.678,1.847,3.678,4.124v55.293C527.871,292.292,526.225,294.138,524.193,294.138z"/>
						</g>
						<g>
							<path fill="#FFFFFF" d="M519.047,288.933h-49.293c-2.031,0-3.68-1.847-3.68-4.126v-55.292c0-2.277,1.648-4.124,3.68-4.124
								h49.293c2.031,0,3.678,1.847,3.678,4.124v55.292C522.725,287.086,521.078,288.933,519.047,288.933z"/>
							
								<path fill="none" stroke="#011635" stroke-width="1.5" stroke-linecap="round" stroke-linejoin="round" stroke-miterlimit="10" d="
								M519.047,288.933h-49.293c-2.031,0-3.68-1.847-3.68-4.126v-55.292c0-2.277,1.648-4.124,3.68-4.124h49.293
								c2.031,0,3.678,1.847,3.678,4.124v55.292C522.725,287.086,521.078,288.933,519.047,288.933z"/>
						</g>
					</g>
					<g>
						
							<line fill="none" stroke="#011635" stroke-width="1.5" stroke-linecap="round" stroke-linejoin="round" stroke-miterlimit="10" x1="470.842" y1="233.592" x2="473.746" y2="230.335"/>
						
							<line fill="none" stroke="#011635" stroke-width="1.5" stroke-linecap="round" stroke-linejoin="round" stroke-miterlimit="10" x1="470.842" y1="230.335" x2="473.746" y2="233.592"/>
					</g>
					<rect x="471.727" y="248.654" fill="none" width="45.348" height="19.467"/>
				</g>
				<g>
					
						<path fill="none" stroke="#011635" stroke-width="1.5" stroke-linecap="round" stroke-linejoin="round" stroke-miterlimit="10" d="
						M453.854,243.204c8.652,0,8.232,7.357,16.049,7.357"/>
					
						<path fill="#011635" stroke="#011635" stroke-width="1.5" stroke-linecap="round" stroke-linejoin="round" stroke-miterlimit="10" d="
						M472.805,250.562L472.805,250.562c0-0.899-0.648-1.629-1.451-1.629l0,0c-0.801,0-1.453,0.729-1.453,1.629l0,0
						c0,0.899,0.652,1.628,1.453,1.628l0,0C472.156,252.189,472.805,251.461,472.805,250.562z"/>
					
						<path fill="#011635" stroke="#011635" stroke-width="1.5" stroke-linecap="round" stroke-linejoin="round" stroke-miterlimit="10" d="
						M453.854,243.204L453.854,243.204c0-0.897-0.65-1.628-1.453-1.628l0,0c-0.801,0-1.451,0.729-1.451,1.628l0,0
						c0,0.9,0.65,1.628,1.451,1.628l0,0C453.203,244.832,453.854,244.104,453.854,243.204z"/>
				</g>
				<g>
					
						<path fill="#011635" stroke="#011635" stroke-width="1.5" stroke-linecap="round" stroke-linejoin="round" stroke-miterlimit="10" d="
						M472.805,260.653L472.805,260.653c0-0.899-0.648-1.627-1.451-1.627l0,0c-0.801,0-1.453,0.728-1.453,1.627l0,0
						c0,0.898,0.652,1.628,1.453,1.628l0,0C472.156,262.281,472.805,261.552,472.805,260.653z"/>
					
						<path fill="#011635" stroke="#011635" stroke-width="1.5" stroke-linecap="round" stroke-linejoin="round" stroke-miterlimit="10" d="
						M453.854,260.653L453.854,260.653c0-0.899-0.65-1.627-1.453-1.627l0,0c-0.801,0-1.451,0.728-1.451,1.627l0,0
						c0,0.898,0.65,1.628,1.451,1.628l0,0C453.203,262.281,453.854,261.552,453.854,260.653z"/>
					
						<line fill="none" stroke="#011635" stroke-width="1.5" stroke-linecap="round" stroke-linejoin="round" stroke-miterlimit="10" x1="453.854" y1="260.653" x2="469.902" y2="260.653"/>
				</g>
				<g>
					
						<path fill="none" stroke="#011635" stroke-width="1.5" stroke-linecap="round" stroke-linejoin="round" stroke-miterlimit="10" d="
						M453.854,278.102c8.652,0,8.232-7.357,16.049-7.357"/>
					
						<path fill="#011635" stroke="#011635" stroke-width="1.5" stroke-linecap="round" stroke-linejoin="round" stroke-miterlimit="10" d="
						M472.805,270.744L472.805,270.744c0,0.898-0.648,1.627-1.451,1.627l0,0c-0.801,0-1.453-0.729-1.453-1.627l0,0
						c0-0.899,0.652-1.628,1.453-1.628l0,0C472.156,269.116,472.805,269.845,472.805,270.744z"/>
					
						<path fill="#011635" stroke="#011635" stroke-width="1.5" stroke-linecap="round" stroke-linejoin="round" stroke-miterlimit="10" d="
						M453.854,278.102L453.854,278.102c0,0.899-0.65,1.628-1.453,1.628l0,0c-0.801,0-1.451-0.729-1.451-1.628l0,0
						c0-0.899,0.65-1.628,1.451-1.628l0,0C453.203,276.473,453.854,277.202,453.854,278.102z"/>
				</g>
			</g>
			<g>
				<g>
					<g>
						<g>
							<g opacity="0.45">
								<path fill="#8791FF" d="M372.454,402.715h-57.001c-2.031,0-3.678-1.846-3.678-4.125v-30.876
									c0-2.278,1.646-4.125,3.678-4.125h57.001c2.033,0,3.677,1.846,3.677,4.125v30.876
									C376.131,400.867,374.484,402.715,372.454,402.715z"/>
								
									<path fill="none" stroke="#8791FF" stroke-width="1.5" stroke-linecap="round" stroke-linejoin="round" stroke-miterlimit="10" d="
									M372.454,402.715h-57.001c-2.031,0-3.678-1.846-3.678-4.125v-30.876c0-2.278,1.646-4.125,3.678-4.125h57.001
									c2.033,0,3.677,1.846,3.677,4.125v30.876C376.131,400.867,374.484,402.715,372.454,402.715z"/>
							</g>
							<g>
								<path fill="#FFFFFF" d="M367.308,397.51h-57c-2.031,0-3.678-1.846-3.678-4.126v-30.875c0-2.277,1.647-4.125,3.678-4.125h57
									c2.033,0,3.679,1.846,3.679,4.125v30.875C370.987,395.662,369.34,397.51,367.308,397.51z"/>
								
									<path fill="none" stroke="#011635" stroke-width="1.5" stroke-linecap="round" stroke-linejoin="round" stroke-miterlimit="10" d="
									M367.308,397.51h-57c-2.031,0-3.678-1.846-3.678-4.126v-30.875c0-2.277,1.647-4.125,3.678-4.125h57
									c2.033,0,3.679,1.846,3.679,4.125v30.875C370.987,395.662,369.34,397.51,367.308,397.51z"/>
							</g>
						</g>
						<g>
							
								<line fill="none" stroke="#011635" stroke-width="1.5" stroke-linecap="round" stroke-linejoin="round" stroke-miterlimit="10" x1="311.398" y1="366.585" x2="314.301" y2="363.329"/>
							
								<line fill="none" stroke="#011635" stroke-width="1.5" stroke-linecap="round" stroke-linejoin="round" stroke-miterlimit="10" x1="311.398" y1="363.329" x2="314.301" y2="366.585"/>
						</g>
						<rect x="316.134" y="368.806" fill="none" width="45.348" height="19.467"/>
					</g>
					<g>
						
							<path fill="none" stroke="#011635" stroke-width="1.5" stroke-linecap="round" stroke-linejoin="round" stroke-miterlimit="10" d="
							M338.981,360.528c0-8.766-6.559-8.296-6.559-18.001l0,0c0-2.611-1.886-4.729-4.214-4.729h-1.681"/>
						
							<path fill="#011635" stroke="#011635" stroke-width="1.5" stroke-linecap="round" stroke-linejoin="round" stroke-miterlimit="10" d="
							M338.981,363.785L338.981,363.785c-0.802,0-1.451-0.727-1.451-1.627l0,0c0-0.899,0.649-1.628,1.451-1.628l0,0
							c0.803,0,1.453,0.729,1.453,1.628l0,0C340.433,363.059,339.784,363.785,338.981,363.785z"/>
						
							<path fill="#011635" stroke="#011635" stroke-width="1.5" stroke-linecap="round" stroke-linejoin="round" stroke-miterlimit="10" d="
							M325.074,339.427L325.074,339.427c-0.802,0-1.452-0.729-1.452-1.628l0,0c0-0.899,0.65-1.629,1.452-1.629l0,0
							c0.802,0,1.453,0.729,1.453,1.629l0,0C326.526,338.697,325.876,339.427,325.074,339.427z"/>
					</g>
					<rect x="348.626" y="378.538" fill="none" width="45.348" height="19.468"/>
				</g>
				<g>
					<g>
						<g>
							<g opacity="0.45">
								<path fill="#8791FF" d="M420.488,409.401h-30.162c-2.031,0-3.678-1.845-3.678-4.125V386.92c0-2.278,1.646-4.128,3.678-4.128
									h30.162c2.031,0,3.678,1.848,3.678,4.128v18.356C424.166,407.555,422.52,409.401,420.488,409.401z"/>
								
									<path fill="none" stroke="#8791FF" stroke-width="1.5" stroke-linecap="round" stroke-linejoin="round" stroke-miterlimit="10" d="
									M420.488,409.401h-30.162c-2.031,0-3.678-1.845-3.678-4.125V386.92c0-2.278,1.646-4.128,3.678-4.128h30.162
									c2.031,0,3.678,1.848,3.678,4.128v18.356C424.166,407.555,422.52,409.401,420.488,409.401z"/>
							</g>
							<g>
								<path fill="#FFFFFF" d="M415.344,404.196h-30.162c-2.031,0-3.678-1.846-3.678-4.125v-18.357
									c0-2.277,1.646-4.127,3.678-4.127h30.162c2.031,0,3.678,1.849,3.678,4.127v18.357
									C419.021,402.35,417.375,404.196,415.344,404.196z"/>
								
									<path fill="none" stroke="#011635" stroke-width="1.5" stroke-linecap="round" stroke-linejoin="round" stroke-miterlimit="10" d="
									M415.344,404.196h-30.162c-2.031,0-3.678-1.846-3.678-4.125v-18.357c0-2.277,1.646-4.127,3.678-4.127h30.162
									c2.031,0,3.678,1.849,3.678,4.127v18.357C419.021,402.35,417.375,404.196,415.344,404.196z"/>
							</g>
						</g>
						<g>
							
								<line fill="none" stroke="#011635" stroke-width="1.5" stroke-linecap="round" stroke-linejoin="round" stroke-miterlimit="10" x1="386.273" y1="385.791" x2="389.176" y2="382.534"/>
							
								<line fill="none" stroke="#011635" stroke-width="1.5" stroke-linecap="round" stroke-linejoin="round" stroke-miterlimit="10" x1="386.273" y1="382.534" x2="389.176" y2="385.791"/>
						</g>
						<g>
							
								<path fill="#011635" stroke="#011635" stroke-width="1.5" stroke-linecap="round" stroke-linejoin="round" stroke-miterlimit="10" d="
								M393.871,395.005c0.754,0,1.359,0.683,1.359,1.525c0,0.845-0.605,1.527-1.359,1.527c-0.752,0-1.359-0.683-1.359-1.527
								C392.512,395.688,393.119,395.005,393.871,395.005z"/>
							
								<ellipse fill="#011635" stroke="#011635" stroke-width="1.5" stroke-linecap="round" stroke-linejoin="round" stroke-miterlimit="10" cx="408.094" cy="385.254" rx="1.361" ry="1.526"/>
							
								<path fill="none" stroke="#011635" stroke-width="1.5" stroke-linecap="round" stroke-linejoin="round" stroke-miterlimit="10" d="
								M393.871,396.53c0,0,11.848,3.515,14.223-11.276"/>
						</g>
					</g>
					<g>
						
							<path fill="none" stroke="#011635" stroke-width="1.5" stroke-linecap="round" stroke-linejoin="round" stroke-miterlimit="10" d="
							M367.391,385.152c8.652,0,8.234,7.356,16.048,7.356"/>
						
							<path fill="#011635" stroke="#011635" stroke-width="1.5" stroke-linecap="round" stroke-linejoin="round" stroke-miterlimit="10" d="
							M386.344,392.509L386.344,392.509c0-0.899-0.648-1.628-1.451-1.628l0,0c-0.803,0-1.453,0.729-1.453,1.628l0,0
							c0,0.898,0.648,1.629,1.453,1.629l0,0C385.693,394.138,386.344,393.407,386.344,392.509z"/>
						
							<path fill="#011635" stroke="#011635" stroke-width="1.5" stroke-linecap="round" stroke-linejoin="round" stroke-miterlimit="10" d="
							M367.391,385.152L367.391,385.152c0-0.9-0.65-1.629-1.452-1.629l0,0c-0.803,0-1.453,0.729-1.453,1.629l0,0
							c0,0.898,0.65,1.626,1.453,1.626l0,0C366.741,386.78,367.391,386.051,367.391,385.152z"/>
					</g>
				</g>
			</g>
			<g>
				<g>
					<g>
						<g opacity="0.45">
							<path fill="#8791FF" d="M290.206,375.538h-27.728c-2.162,0-3.915-1.966-3.915-4.391v-55.244c0-2.425,1.752-4.389,3.915-4.389
								h27.728c2.162,0,3.914,1.967,3.914,4.389v55.244C294.12,373.572,292.367,375.538,290.206,375.538z"/>
							
								<path fill="none" stroke="#8791FF" stroke-width="1.5" stroke-linecap="round" stroke-linejoin="round" stroke-miterlimit="10" d="
								M290.206,375.538h-27.728c-2.162,0-3.915-1.966-3.915-4.391v-55.244c0-2.425,1.752-4.389,3.915-4.389h27.728
								c2.162,0,3.914,1.967,3.914,4.389v55.244C294.12,373.572,292.367,375.538,290.206,375.538z"/>
						</g>
						<g>
							<path fill="#FFFFFF" d="M285.061,370.334h-27.728c-2.162,0-3.914-1.967-3.914-4.393v-55.242c0-2.426,1.752-4.39,3.914-4.39
								h27.728c2.162,0,3.914,1.967,3.914,4.39v55.242C288.975,368.367,287.222,370.334,285.061,370.334z"/>
							
								<path fill="none" stroke="#011635" stroke-width="1.5" stroke-linecap="round" stroke-linejoin="round" stroke-miterlimit="10" d="
								M285.061,370.334h-27.728c-2.162,0-3.914-1.967-3.914-4.393v-55.242c0-2.426,1.752-4.39,3.914-4.39h27.728
								c2.162,0,3.914,1.967,3.914,4.39v55.242C288.975,368.367,287.222,370.334,285.061,370.334z"/>
						</g>
					</g>
					<g>
						
							<line fill="none" stroke="#011635" stroke-width="1.5" stroke-linecap="round" stroke-linejoin="round" stroke-miterlimit="10" x1="258.186" y1="314.509" x2="261.089" y2="311.254"/>
						
							<line fill="none" stroke="#011635" stroke-width="1.5" stroke-linecap="round" stroke-linejoin="round" stroke-miterlimit="10" x1="258.186" y1="311.254" x2="261.089" y2="314.509"/>
					</g>
					<g>
						<path fill="#8791FF" d="M283.107,330.29c-0.004-0.116-0.049-0.223-0.125-0.301c-0.077-0.076-0.176-0.119-0.279-0.108
							c-7.358,0.487-11.133-6.889-11.171-6.963c-0.136-0.271-0.533-0.271-0.668,0c-0.037,0.074-3.818,7.448-11.171,6.963
							c-0.102-0.009-0.203,0.032-0.279,0.108c-0.077,0.078-0.121,0.185-0.125,0.301c-0.008,0.195-0.678,19.722,11.851,21.911
							c0.02,0.002,0.04,0.004,0.059,0.004s0.04-0.002,0.059-0.004C283.784,350.014,283.115,330.485,283.107,330.29z"/>
					</g>
				</g>
				<g>
					
						<path fill="none" stroke="#011635" stroke-width="1.5" stroke-linecap="round" stroke-linejoin="round" stroke-miterlimit="10" d="
						M301.133,315.312c-8.652,0-8.234,7.358-16.049,7.358"/>
					
						<path fill="#011635" stroke="#011635" stroke-width="1.5" stroke-linecap="round" stroke-linejoin="round" stroke-miterlimit="10" d="
						M282.181,322.668L282.181,322.668c0-0.899,0.65-1.629,1.452-1.629l0,0c0.802,0,1.452,0.729,1.452,1.629l0,0
						c0,0.899-0.65,1.627-1.452,1.627l0,0C282.832,324.297,282.181,323.567,282.181,322.668z"/>
					
						<path fill="#011635" stroke="#011635" stroke-width="1.5" stroke-linecap="round" stroke-linejoin="round" stroke-miterlimit="10" d="
						M301.133,315.312L301.133,315.312c0-0.899,0.65-1.627,1.452-1.627l0,0c0.802,0,1.451,0.728,1.451,1.627l0,0
						c0,0.898-0.649,1.628-1.451,1.628l0,0C301.784,316.939,301.133,316.21,301.133,315.312z"/>
				</g>
			</g>
			<g>
				<g>
					<g>
						<g opacity="0.45">
							<path fill="#8791FF" d="M290.442,296.199h-28.201c-2.032,0-3.678-1.846-3.678-4.125v-46.163c0-2.278,1.646-4.126,3.678-4.126
								h28.201c2.03,0,3.677,1.847,3.677,4.126v46.163C294.12,294.354,292.473,296.199,290.442,296.199z"/>
							
								<path fill="none" stroke="#8791FF" stroke-width="1.5" stroke-linecap="round" stroke-linejoin="round" stroke-miterlimit="10" d="
								M290.442,296.199h-28.201c-2.032,0-3.678-1.846-3.678-4.125v-46.163c0-2.278,1.646-4.126,3.678-4.126h28.201
								c2.03,0,3.677,1.847,3.677,4.126v46.163C294.12,294.354,292.473,296.199,290.442,296.199z"/>
						</g>
						<g>
							<path fill="#FFFFFF" d="M285.297,290.994h-28.201c-2.032,0-3.678-1.846-3.678-4.124v-46.166c0-2.278,1.646-4.125,3.678-4.125
								h28.201c2.031,0,3.677,1.847,3.677,4.125v46.166C288.975,289.148,287.328,290.994,285.297,290.994z"/>
							
								<path fill="none" stroke="#011635" stroke-width="1.5" stroke-linecap="round" stroke-linejoin="round" stroke-miterlimit="10" d="
								M285.297,290.994h-28.201c-2.032,0-3.678-1.846-3.678-4.124v-46.166c0-2.278,1.646-4.125,3.678-4.125h28.201
								c2.031,0,3.677,1.847,3.677,4.125v46.166C288.975,289.148,287.328,290.994,285.297,290.994z"/>
						</g>
					</g>
					<g>
						
							<line fill="none" stroke="#011635" stroke-width="1.5" stroke-linecap="round" stroke-linejoin="round" stroke-miterlimit="10" x1="258.186" y1="244.781" x2="261.089" y2="241.524"/>
						
							<line fill="none" stroke="#011635" stroke-width="1.5" stroke-linecap="round" stroke-linejoin="round" stroke-miterlimit="10" x1="258.186" y1="241.524" x2="261.089" y2="244.781"/>
					</g>
					<g>
						<rect x="255.252" y="255.855" fill="none" width="31.89" height="18.029"/>
						<text transform="matrix(0.8916 0 0 1 258.2725 270.1914)" fill="#011635" font-family="'ArialMT'" font-size="20.6266">&lt;/&gt;</text>
					</g>
				</g>
				<g>
					
						<path fill="none" stroke="#011635" stroke-width="1.5" stroke-linecap="round" stroke-linejoin="round" stroke-miterlimit="10" d="
						M301.133,257.276c-8.652,0-8.234-7.357-16.049-7.357"/>
					
						<path fill="#011635" stroke="#011635" stroke-width="1.5" stroke-linecap="round" stroke-linejoin="round" stroke-miterlimit="10" d="
						M282.181,249.919L282.181,249.919c0,0.899,0.65,1.628,1.452,1.628l0,0c0.802,0,1.452-0.729,1.452-1.628l0,0
						c0-0.898-0.65-1.629-1.452-1.629l0,0C282.832,248.29,282.181,249.021,282.181,249.919z"/>
					
						<path fill="#011635" stroke="#011635" stroke-width="1.5" stroke-linecap="round" stroke-linejoin="round" stroke-miterlimit="10" d="
						M301.133,257.276L301.133,257.276c0,0.899,0.65,1.628,1.452,1.628l0,0c0.802,0,1.451-0.729,1.451-1.628l0,0
						c0-0.898-0.649-1.627-1.451-1.627l0,0C301.784,255.648,301.133,256.378,301.133,257.276z"/>
				</g>
			</g>
			<g>
				<g>
					<g>
						<g opacity="0.45">
							<path fill="#8791FF" d="M348.247,250.472h-30.161c-2.032,0-3.678-1.848-3.678-4.125v-18.357c0-2.278,1.646-4.126,3.678-4.126
								h30.161c2.031,0,3.678,1.848,3.678,4.126v18.357C351.923,248.624,350.277,250.472,348.247,250.472z"/>
							
								<path fill="none" stroke="#8791FF" stroke-width="1.5" stroke-linecap="round" stroke-linejoin="round" stroke-miterlimit="10" d="
								M348.247,250.472h-30.161c-2.032,0-3.678-1.848-3.678-4.125v-18.357c0-2.278,1.646-4.126,3.678-4.126h30.161
								c2.031,0,3.678,1.848,3.678,4.126v18.357C351.923,248.624,350.277,250.472,348.247,250.472z"/>
						</g>
						<g>
							<path fill="#FFFFFF" d="M343.102,245.267H312.94c-2.032,0-3.678-1.847-3.678-4.125v-18.356c0-2.279,1.646-4.126,3.678-4.126
								h30.161c2.031,0,3.678,1.847,3.678,4.126v18.356C346.779,243.42,345.132,245.267,343.102,245.267z"/>
							
								<path fill="none" stroke="#011635" stroke-width="1.5" stroke-linecap="round" stroke-linejoin="round" stroke-miterlimit="10" d="
								M343.102,245.267H312.94c-2.032,0-3.678-1.847-3.678-4.125v-18.356c0-2.279,1.646-4.126,3.678-4.126h30.161
								c2.031,0,3.678,1.847,3.678,4.126v18.356C346.779,243.42,345.132,245.267,343.102,245.267z"/>
						</g>
					</g>
					<g>
						
							<line fill="none" stroke="#011635" stroke-width="1.5" stroke-linecap="round" stroke-linejoin="round" stroke-miterlimit="10" x1="314.029" y1="226.86" x2="316.933" y2="223.604"/>
						
							<line fill="none" stroke="#011635" stroke-width="1.5" stroke-linecap="round" stroke-linejoin="round" stroke-miterlimit="10" x1="314.029" y1="223.604" x2="316.933" y2="226.86"/>
					</g>
				</g>
				<g>
					<g>
						<g opacity="0.45">
							<path fill="#8791FF" d="M439.75,230.186h-75.709c-2.033,0-3.678,1.848-3.678,4.125v3.609c0,2.278,1.645,4.126,3.678,4.126
								h75.709c2.031,0,3.68-1.848,3.68-4.126v-3.609C443.43,232.033,441.781,230.186,439.75,230.186z"/>
							
								<path fill="none" stroke="#8791FF" stroke-width="1.5" stroke-linecap="round" stroke-linejoin="round" stroke-miterlimit="10" d="
								M439.75,230.186h-75.709c-2.033,0-3.678,1.848-3.678,4.125v3.609c0,2.278,1.645,4.126,3.678,4.126h75.709
								c2.031,0,3.68-1.848,3.68-4.126v-3.609C443.43,232.033,441.781,230.186,439.75,230.186z"/>
						</g>
						<g>
							<path fill="#FFFFFF" d="M435.646,226.034h-75.711c-2.032,0-3.679,1.847-3.679,4.124v3.609c0,2.278,1.646,4.126,3.679,4.126
								h75.711c2.029,0,3.676-1.848,3.676-4.126v-3.609C439.324,227.88,437.676,226.034,435.646,226.034z"/>
							
								<path fill="none" stroke="#011635" stroke-width="1.5" stroke-linecap="round" stroke-linejoin="round" stroke-miterlimit="10" d="
								M435.646,226.034h-75.711c-2.032,0-3.679,1.847-3.679,4.124v3.609c0,2.278,1.646,4.126,3.679,4.126h75.711
								c2.029,0,3.676-1.848,3.676-4.126v-3.609C439.324,227.88,437.676,226.034,435.646,226.034z"/>
						</g>
					</g>
					<g>
						<path fill="#D0BBF9" d="M433.189,230.026h-55.08c-0.953,0-1.727,0.868-1.727,1.938l0,0c0,1.068,0.773,1.936,1.727,1.936h55.08
							c0.953,0,1.727-0.867,1.727-1.936l0,0C434.916,230.895,434.143,230.026,433.189,230.026z"/>
						<path fill="#8791FF" d="M422.441,230.026h-44.332c-0.953,0-1.727,0.868-1.727,1.938c0,1.068,0.773,1.936,1.727,1.936h44.332
							V230.026L422.441,230.026z"/>
					</g>
					
						<rect x="368.678" y="230.368" fill="none" stroke="#011635" stroke-width="1.5" stroke-linecap="round" stroke-linejoin="round" stroke-miterlimit="10" width="2.902" height="3.256"/>
				</g>
				<g>
					<g>
						<g opacity="0.45">
							<path fill="#8791FF" d="M439.75,213.671h-75.709c-2.033,0-3.678,1.847-3.678,4.125v3.609c0,2.278,1.645,4.126,3.678,4.126
								h75.709c2.031,0,3.68-1.848,3.68-4.126v-3.609C443.43,215.518,441.781,213.671,439.75,213.671z"/>
							
								<path fill="none" stroke="#8791FF" stroke-width="1.5" stroke-linecap="round" stroke-linejoin="round" stroke-miterlimit="10" d="
								M439.75,213.671h-75.709c-2.033,0-3.678,1.847-3.678,4.125v3.609c0,2.278,1.645,4.126,3.678,4.126h75.709
								c2.031,0,3.68-1.848,3.68-4.126v-3.609C443.43,215.518,441.781,213.671,439.75,213.671z"/>
						</g>
						<g>
							<path fill="#FFFFFF" d="M435.646,209.519h-75.711c-2.032,0-3.679,1.847-3.679,4.125v3.609c0,2.278,1.646,4.126,3.679,4.126
								h75.711c2.029,0,3.676-1.848,3.676-4.126v-3.609C439.324,211.365,437.676,209.519,435.646,209.519z"/>
							
								<path fill="none" stroke="#011635" stroke-width="1.5" stroke-linecap="round" stroke-linejoin="round" stroke-miterlimit="10" d="
								M435.646,209.519h-75.711c-2.032,0-3.679,1.847-3.679,4.125v3.609c0,2.278,1.646,4.126,3.679,4.126h75.711
								c2.029,0,3.676-1.848,3.676-4.126v-3.609C439.324,211.365,437.676,209.519,435.646,209.519z"/>
						</g>
					</g>
					<g>
						<path fill="#D0BBF9" d="M433.189,213.512h-55.08c-0.953,0-1.727,0.867-1.727,1.937l0,0c0,1.069,0.773,1.937,1.727,1.937h55.08
							c0.953,0,1.727-0.867,1.727-1.937l0,0C434.916,214.379,434.143,213.512,433.189,213.512z"/>
						<path fill="#8791FF" d="M390.502,213.512h-12.393c-0.953,0-1.727,0.867-1.727,1.937s0.773,1.937,1.727,1.937h12.393V213.512z"
							/>
					</g>
					
						<rect x="368.678" y="213.854" fill="none" stroke="#011635" stroke-width="1.5" stroke-linecap="round" stroke-linejoin="round" stroke-miterlimit="10" width="2.902" height="3.256"/>
				</g>
				<g>
					<g>
						<g opacity="0.45">
							<path fill="#8791FF" d="M439.75,246.701h-75.709c-2.033,0-3.678,1.848-3.678,4.126v3.609c0,2.277,1.645,4.126,3.678,4.126
								h75.709c2.031,0,3.68-1.847,3.68-4.126v-3.609C443.43,248.549,441.781,246.701,439.75,246.701z"/>
							
								<path fill="none" stroke="#8791FF" stroke-width="1.5" stroke-linecap="round" stroke-linejoin="round" stroke-miterlimit="10" d="
								M439.75,246.701h-75.709c-2.033,0-3.678,1.848-3.678,4.126v3.609c0,2.277,1.645,4.126,3.678,4.126h75.709
								c2.031,0,3.68-1.847,3.68-4.126v-3.609C443.43,248.549,441.781,246.701,439.75,246.701z"/>
						</g>
						<g>
							<path fill="#FFFFFF" d="M435.646,242.549h-75.711c-2.032,0-3.679,1.847-3.679,4.125v3.609c0,2.277,1.646,4.127,3.679,4.127
								h75.711c2.029,0,3.676-1.849,3.676-4.127v-3.609C439.324,244.395,437.676,242.549,435.646,242.549z"/>
							
								<path fill="none" stroke="#011635" stroke-width="1.5" stroke-linecap="round" stroke-linejoin="round" stroke-miterlimit="10" d="
								M435.646,242.549h-75.711c-2.032,0-3.679,1.847-3.679,4.125v3.609c0,2.277,1.646,4.127,3.679,4.127h75.711
								c2.029,0,3.676-1.849,3.676-4.127v-3.609C439.324,244.395,437.676,242.549,435.646,242.549z"/>
						</g>
					</g>
					<g>
						<path fill="#D0BBF9" d="M433.189,246.541h-55.08c-0.953,0-1.727,0.867-1.727,1.938l0,0c0,1.068,0.773,1.936,1.727,1.936h55.08
							c0.953,0,1.727-0.867,1.727-1.936l0,0C434.916,247.408,434.143,246.541,433.189,246.541z"/>
						<path fill="#8791FF" d="M431.09,246.541h-52.98c-0.953,0-1.727,0.867-1.727,1.938c0,1.068,0.773,1.936,1.727,1.936h52.98
							V246.541L431.09,246.541z"/>
					</g>
					
						<rect x="368.678" y="246.883" fill="none" stroke="#011635" stroke-width="1.5" stroke-linecap="round" stroke-linejoin="round" stroke-miterlimit="10" width="2.902" height="3.258"/>
				</g>
				<g>
					
						<path fill="none" stroke="#011635" stroke-width="1.5" stroke-linecap="round" stroke-linejoin="round" stroke-miterlimit="10" d="
						M359.735,216.055c-8.653,0-8.234,7.357-16.049,7.357"/>
					
						<path fill="#011635" stroke="#011635" stroke-width="1.5" stroke-linecap="round" stroke-linejoin="round" stroke-miterlimit="10" d="
						M340.783,223.412L340.783,223.412c0-0.898,0.65-1.628,1.453-1.628l0,0c0.801,0,1.452,0.729,1.452,1.628l0,0
						c0,0.899-0.65,1.627-1.452,1.627l0,0C341.433,225.039,340.783,224.312,340.783,223.412z"/>
					
						<path fill="#011635" stroke="#011635" stroke-width="1.5" stroke-linecap="round" stroke-linejoin="round" stroke-miterlimit="10" d="
						M359.735,216.055L359.735,216.055c0-0.898,0.65-1.628,1.452-1.628l0,0c0.803,0,1.454,0.729,1.454,1.628l0,0
						c0,0.899-0.651,1.628-1.454,1.628l0,0C360.385,217.683,359.735,216.954,359.735,216.055z"/>
				</g>
				<g>
					
						<path fill="#011635" stroke="#011635" stroke-width="1.5" stroke-linecap="round" stroke-linejoin="round" stroke-miterlimit="10" d="
						M340.783,232.357L340.783,232.357c0-0.899,0.65-1.629,1.453-1.629l0,0c0.801,0,1.452,0.729,1.452,1.629l0,0
						c0,0.898-0.65,1.628-1.452,1.628l0,0C341.433,233.985,340.783,233.256,340.783,232.357z"/>
					
						<path fill="#011635" stroke="#011635" stroke-width="1.5" stroke-linecap="round" stroke-linejoin="round" stroke-miterlimit="10" d="
						M359.735,232.357L359.735,232.357c0-0.899,0.65-1.629,1.452-1.629l0,0c0.803,0,1.454,0.729,1.454,1.629l0,0
						c0,0.898-0.651,1.628-1.454,1.628l0,0C360.385,233.985,359.735,233.256,359.735,232.357z"/>
					
						<line fill="none" stroke="#011635" stroke-width="1.5" stroke-linecap="round" stroke-linejoin="round" stroke-miterlimit="10" x1="359.735" y1="232.357" x2="343.686" y2="232.357"/>
				</g>
				<g>
					
						<path fill="none" stroke="#011635" stroke-width="1.5" stroke-linecap="round" stroke-linejoin="round" stroke-miterlimit="10" d="
						M359.735,248.086c-8.653,0-8.234-7.358-16.049-7.358"/>
					
						<path fill="#011635" stroke="#011635" stroke-width="1.5" stroke-linecap="round" stroke-linejoin="round" stroke-miterlimit="10" d="
						M340.783,240.729L340.783,240.729c0,0.898,0.65,1.628,1.453,1.628l0,0c0.801,0,1.452-0.729,1.452-1.628l0,0
						c0-0.899-0.65-1.628-1.452-1.628l0,0C341.433,239.101,340.783,239.829,340.783,240.729z"/>
					
						<path fill="#011635" stroke="#011635" stroke-width="1.5" stroke-linecap="round" stroke-linejoin="round" stroke-miterlimit="10" d="
						M359.735,248.086L359.735,248.086c0,0.899,0.65,1.626,1.452,1.626l0,0c0.803,0,1.454-0.727,1.454-1.626l0,0
						c0-0.9-0.651-1.629-1.454-1.629l0,0C360.385,246.457,359.735,247.186,359.735,248.086z"/>
				</g>
			</g>
		</g>
	</g>
</g>
<g>
	<defs>
		<rect id="SVGID_1_" x="502.063" y="236.736" width="56.515" height="64.27"/>
	</defs>
	<clipPath id="SVGID_2_">
		<use xlink:href="#SVGID_1_"  overflow="visible"/>
	</clipPath>
</g>
<g>
	<path fill="#8791FF" d="M497.572,271.448c8.096,0,14.66-1.833,14.66-4.092v-5.162c-0.097,0.072-0.191,0.141-0.297,0.209
		c-0.872,0.576-2.077,1.08-3.577,1.5c-2.901,0.808-6.73,1.254-10.786,1.254c-4.054,0-7.883-0.446-10.784-1.254
		c-1.5-0.42-2.705-0.924-3.577-1.5c-0.105-0.068-0.201-0.137-0.297-0.209v5.162C482.914,269.615,489.479,271.448,497.572,271.448z"
		/>
	<path fill="#8791FF" d="M497.572,263.643c7.823,0,14.213-1.709,14.637-3.865c0.016-0.076,0.023-0.15,0.023-0.228v-5.198
		c-0.097,0.071-0.191,0.14-0.297,0.208c-0.734,0.485-1.707,0.92-2.896,1.296c-0.22,0.068-0.447,0.137-0.681,0.204
		c-0.235,0.064-0.474,0.129-0.72,0.19c-0.57,0.141-1.166,0.265-1.79,0.379c-2.45,0.446-5.302,0.686-8.276,0.686
		s-5.824-0.239-8.279-0.686c-0.623-0.114-1.219-0.242-1.79-0.379c-0.245-0.062-0.483-0.121-0.719-0.19
		c-0.234-0.063-0.461-0.132-0.681-0.204c-1.189-0.376-2.161-0.811-2.897-1.296c-0.103-0.068-0.2-0.137-0.296-0.208v5.198
		c0,0.077,0.008,0.151,0.022,0.228C483.361,261.934,489.751,263.643,497.572,263.643z"/>
	<path fill="#8791FF" d="M489.293,255.083c0.797,0.15,1.646,0.283,2.544,0.391c1.761,0.208,3.7,0.324,5.735,0.324
		c2.037,0,3.976-0.116,5.737-0.324c0.897-0.107,1.747-0.24,2.544-0.391c3.623-0.695,6.078-1.831,6.355-3.131
		c0.019-0.083,0.027-0.162,0.027-0.246v-7.352c0-2.259-6.564-4.092-14.659-4.092c-8.097,0-14.659,1.833-14.659,4.092v7.352
		c0,0.084,0.007,0.163,0.026,0.246C483.218,253.252,485.67,254.388,489.293,255.083z M499.15,251.945
		c0,0.856-0.708,1.554-1.578,1.554c-0.868,0-1.576-0.697-1.576-1.554c0-0.855,0.708-1.554,1.576-1.554
		C498.442,250.392,499.15,251.09,499.15,251.945z"/>
</g>
<g>
</g>
<g>
</g>
<g>
</g>
<g>
</g>
<g>
</g>
<g>
</g>
<g>
</g>
<g>
</g>
<g>
</g>
<g>
</g>
<g>
</g>
<g>
</g>
<g>
</g>
<g>
</g>
<g>
</g>
<g>
	<g>
		<g>
			<path d="M335.106,240.488l-0.147-2.624c-0.108-1.908-1.492-3.456-3.294-3.836l0.604-0.101c0.912-0.152,1.573-0.934,1.573-1.857
				v-3.279c0-3.21-2.611-5.821-5.821-5.821s-5.821,2.611-5.821,5.821v3.289c0,0.917,0.655,1.696,1.558,1.855l0.581,0.102
				c-1.784,0.395-3.149,1.934-3.256,3.827l-0.148,2.624c-0.006,0.122,0.037,0.242,0.121,0.329c0.083,0.09,0.2,0.139,0.322,0.139
				h13.284c0.122,0,0.239-0.049,0.322-0.139C335.07,240.73,335.113,240.61,335.106,240.488z M323.912,233.061
				c-0.477-0.084-0.823-0.496-0.823-0.98v-3.289c0-2.72,2.213-4.933,4.933-4.933s4.933,2.213,4.933,4.933v3.279
				c0,0.488-0.35,0.901-0.831,0.981l-1.629,0.271c0.759-0.68,1.238-1.667,1.238-2.764v-3.13c0-0.354-0.148-0.926-0.166-0.99
				c-0.063-0.235-0.304-0.378-0.541-0.316l-6.382,1.663c-0.195,0.051-0.332,0.229-0.332,0.431v2.343
				c0,1.113,0.494,2.113,1.273,2.794L323.912,233.061z M328.021,233.382c-1.556,0-2.822-1.267-2.822-2.822v-2l5.604-1.461
				c0.023,0.127,0.04,0.249,0.04,0.331v3.13C330.844,232.115,329.578,233.382,328.021,233.382z M330.375,234.243l-2.353,4.249
				l-2.337-4.22l0.76,0.133c0.49,0.087,0.983,0.129,1.477,0.129c0.47,0,0.94-0.038,1.407-0.115L330.375,234.243z M321.849,240.069
				l0.122-2.155c0.092-1.646,1.394-2.952,3.011-3.078l2.651,4.788c0.079,0.141,0.227,0.229,0.389,0.229
				c0.161,0,0.31-0.088,0.389-0.229l2.651-4.788c1.618,0.126,2.919,1.433,3.011,3.078l0.122,2.155H321.849z"/>
		</g>
	</g>
	<g>
	</g>
	<g>
	</g>
	<g>
	</g>
	<g>
	</g>
	<g>
	</g>
	<g>
	</g>
	<g>
	</g>
	<g>
	</g>
	<g>
	</g>
	<g>
	</g>
	<g>
	</g>
	<g>
	</g>
	<g>
	</g>
	<g>
	</g>
	<g>
	</g>
</g>
</svg>
