<?xml version="1.0" encoding="utf-8"?>
<!-- Generator: Adobe Illustrator 16.0.3, SVG Export Plug-In . SVG Version: 6.00 Build 0)  -->
<!DOCTYPE svg PUBLIC "-//W3C//DTD SVG 1.1//EN" "http://www.w3.org/Graphics/SVG/1.1/DTD/svg11.dtd">
<svg version="1.1" xmlns="http://www.w3.org/2000/svg" xmlns:xlink="http://www.w3.org/1999/xlink" x="0px" y="0px" width="3710px"
	 height="3710px" viewBox="0 0 3710 3710" enable-background="new 0 0 3710 3710" xml:space="preserve">
<g id="Background">
</g>
<g id="Illustration">
	<g>
		<path fill="#4E4754" d="M2989.585,958.885c-49.349-65.985-471.828-611.646-1156.646-585.068
			c-34.221,1.329-702.104,35.784-948.448,463.517c-182.229,316.405,10.697,597.136-211.606,812.711
			c-193.703,187.838-431.755,63.508-550.791,215.403c-181.323,231.38,107.437,856.274,551.099,1204.775
			c458.108,359.849,1334.523,623.848,2015.706,143.74C3453.674,2674.941,3445.913,1569.032,2989.585,958.885z"/>
		<g>
			<g>
				<g>
					<defs>
						<path id="SVGID_1_" d="M2019.615,2732.744c-90.677-85.092-210.324-223.287-264.466-418.689
							c-71.004-256.268,33.048-385.77,21.313-819.639c-7.418-274.332-15.36-465.707-153.663-568.069
							c-108.382-80.216-283.843-96.164-390.33-21.812c-88.542,61.822-139.766,193.31-155.396,287.167
							c-12.738,76.493-2.507,132.033-46.601,172.328c-45.063,41.18-93.709,17.866-135.845,48.367
							c-85.451,61.855-35.972,266.745-27.977,299.859c88.956,368.356,428.363,616.788,577.721,723.372
							C1567.864,2523.754,1758.902,2641.187,2019.615,2732.744z"/>
					</defs>
					<linearGradient id="SVGID_2_" gradientUnits="userSpaceOnUse" x1="845.1621" y1="1794.6816" x2="2019.6147" y2="1794.6816">
						<stop  offset="0" style="stop-color:#AA80F9"/>
						<stop  offset="0.9964" style="stop-color:#6165D7"/>
					</linearGradient>
					<use xlink:href="#SVGID_1_"  overflow="visible" fill="url(#SVGID_2_)"/>
					<clipPath id="SVGID_3_">
						<use xlink:href="#SVGID_1_"  overflow="visible"/>
					</clipPath>
					<g opacity="0.5" clip-path="url(#SVGID_3_)">
						<path fill="#FFFFFF" d="M2123.306,2800.625c-158.088-60.07-294.154-131.732-404.42-212.995
							c-163.221-120.285-264.882-258.472-302.16-410.718c-29.147-119.062-18.337-248.096-4.65-411.459
							c11.352-135.425,31.59-230.295,49.448-313.998c23.141-108.474,41.421-194.155,28.734-318.038
							c-12.884-125.858-54.402-251.02-123.407-372.006l6.223-3.549c69.498,121.86,111.321,247.968,124.309,374.824
							c12.8,125.004-5.583,211.172-28.855,320.263c-17.813,83.495-38.003,178.129-49.314,313.094
							c-14.166,169.082-24.399,291.241,4.471,409.166c36.865,150.574,137.614,287.393,299.45,406.658
							c109.741,80.875,245.237,152.225,402.718,212.066L2123.306,2800.625z"/>
						<path fill="#FFFFFF" d="M1424.137,1670.56l-1.153-3.875c-72.987-244.994-204.048-398.275-301.14-483.721
							c-105.105-92.498-193.927-127.504-194.811-127.847l2.587-6.677c0.895,0.348,90.901,35.818,196.954,129.149
							c97.271,85.604,228.379,238.771,302.079,483.084c17.67-8.443,96.152-48.56,174.681-129.452
							c81.832-84.29,180.48-231.418,185.737-453.662l7.16,0.167c-5.317,224.704-105.154,373.469-187.972,458.7
							c-89.733,92.348-179.52,132.126-180.418,132.516L1424.137,1670.56z"/>
						<path fill="#FFFFFF" d="M1403.656,2036.082l-2.496-0.732c-119.166-34.975-254.425-172.137-402.018-407.674
							c-109.713-175.087-185.528-342.108-186.28-343.775l6.523-2.947c0.752,1.663,76.396,168.305,185.864,342.989
							c100.239,159.951,249.964,359.355,395.453,403.797c12.142-17.438,96.704-137.039,203.501-241.829
							c115.514-113.34,384.381-152.478,387.083-152.861l1,7.09c-2.678,0.379-269.237,39.194-383.069,150.883
							c-114.43,112.279-203.212,241.619-204.093,242.912L1403.656,2036.082z"/>
						<path fill="#FFFFFF" d="M1674.72,2554.388l-7.086-0.843c-1.332-0.159-135.326-16.571-310.341-77.595
							c-161.563-56.332-392.216-163.304-573.531-353.014l-350.053-366.25l5.174-4.947l350.053,366.25
							c180.288,188.628,409.772,295.065,570.539,351.138c151.546,52.859,272.139,72.121,301.929,76.354
							c-37.478-67.872-51.018-138.715-40.25-210.674c8.865-59.242,34.143-119.308,75.126-178.528
							c69.614-100.59,161.864-164.855,162.787-165.494l4.069,5.893c-0.916,0.634-92.223,64.269-161.076,163.834
							c-40.317,58.295-65.16,117.328-73.841,175.458c-10.827,72.514,3.618,143.921,42.941,212.233L1674.72,2554.388z"/>
					</g>
				</g>
			</g>
			<g>
				<g>
					<defs>
						<path id="SVGID_4_" d="M1532.585,2726.74c-196.324,1.678-446.663-24.194-686.573-132.193
							c-61.227-27.563-439.45-197.825-395.123-370.029c15.614-60.66,70.473-70.332,92.767-151.068
							c26.416-95.667-33.697-143.322-75.52-262.417c-24.956-71.063-97.988-279.032,26.479-394.474
							c74.378-68.984,215.918-101.809,323.741-76.839c158.154,36.624,212.778,190.407,300.705,452.209
							c77.943,232.078,58.125,289.116,117.167,455.254C1280.048,2370.484,1362.447,2540.207,1532.585,2726.74z"/>
					</defs>
					<linearGradient id="SVGID_5_" gradientUnits="userSpaceOnUse" x1="1225.9502" y1="1469.8428" x2="884.2185" y2="2387.124">
						<stop  offset="0.0036" style="stop-color:#E38DDD"/>
						<stop  offset="1" style="stop-color:#9571F6"/>
					</linearGradient>
					<use xlink:href="#SVGID_4_"  overflow="visible" fill="url(#SVGID_5_)"/>
					<clipPath id="SVGID_6_">
						<use xlink:href="#SVGID_4_"  overflow="visible"/>
					</clipPath>
					<g opacity="0.5" clip-path="url(#SVGID_6_)">
						<path fill="#FFFFFF" d="M2023.758,2831.986c-93.792,0.002-185.752-10.719-275.397-32.178
							c-265.042-63.444-495.044-221.631-683.618-470.163c-196.03-258.36-298.202-549.712-349.396-748.63
							c-35.666-138.594-29.143-291.997,19.386-455.948l6.866,2.031c-48.157,162.692-54.656,314.811-19.315,452.134
							c51.025,198.28,152.851,488.673,348.161,746.087c187.55,247.178,416.191,404.478,679.58,467.525
							c197.729,47.329,406.944,42.101,621.85-15.528l1.854,6.916C2255.047,2816.059,2138.052,2831.984,2023.758,2831.986z"/>
						<path fill="#FFFFFF" d="M856.496,1973.508l-2.705-1.742c-423.693-272.956-419.942-587.753-408.702-677.732
							c0.224-1.776,0.377-2.93,0.391-3.426l7.16-0.048c0.008,0.689-0.107,1.659-0.447,4.361
							c-11.086,88.737-14.673,398.777,402.731,669.052c10.191-13.257,57.705-77.431,96.868-170.168
							c40.442-95.771,80.001-242.504,38.785-397.671l6.923-1.839c41.753,157.202,1.73,305.646-39.194,402.494
							c-44.303,104.831-99.239,173.533-99.788,174.216L856.496,1973.508z"/>
						<path fill="#FFFFFF" d="M903.714,2339.129c-168.701,0-286.622-44.008-361.148-86.514
							c-54.622-31.151-92.258-64.828-114.213-87.596c-23.874-24.755-34.656-41.924-35.104-42.643l6.076-3.785
							c0.43,0.686,43.99,69.291,147.194,128.037c171.862,97.83,374.752,93.979,515.374,73.282
							c9.984-22.24,110.098-254.56,86.185-565.354l-25.402-330.174l7.14-0.549l25.402,330.174
							c25.182,327.333-86.504,568.292-87.637,570.687l-0.818,1.732l-1.891,0.281
							C1006.694,2335.367,953.033,2339.129,903.714,2339.129z"/>
					</g>
				</g>
			</g>
		</g>
		<g>
			<g>
				<linearGradient id="SVGID_7_" gradientUnits="userSpaceOnUse" x1="2306.8457" y1="2634.0264" x2="2730.0598" y2="2965.9592">
					<stop  offset="0" style="stop-color:#FF9085"/>
					<stop  offset="1" style="stop-color:#FB6FBB"/>
				</linearGradient>
				<path fill="url(#SVGID_7_)" d="M2111.922,2829.459v73.709l0.106,0.006c4.519,44.487,190.592,126.192,460.852,127.703
					c397.375,2.221,531.574-86.517,537.819-131.953h0.148v-67.918L2111.922,2829.459z"/>
				
					<linearGradient id="SVGID_8_" gradientUnits="userSpaceOnUse" x1="3442.54" y1="2937.123" x2="2207.5864" y2="2733.3291" gradientTransform="matrix(1 0.0219 0 1 0 -26.6951)">
					<stop  offset="0" style="stop-color:#311944"/>
					<stop  offset="1" style="stop-color:#893976"/>
				</linearGradient>
				<path fill="url(#SVGID_8_)" d="M3110.848,2831.279c0,45.818-229.282,81.998-507.542,80.83
					c-273.332-1.148-491.385-38.025-491.385-82.385c0-44.36,218.053-80.559,491.385-80.855
					C2881.565,2748.566,3110.848,2785.461,3110.848,2831.279z"/>
				
					<linearGradient id="SVGID_9_" gradientUnits="userSpaceOnUse" x1="2612.5098" y1="2864.2793" x2="2609.0671" y2="2688.7114" gradientTransform="matrix(1 0.0219 0 1 0 -26.6951)">
					<stop  offset="0" style="stop-color:#FF9085"/>
					<stop  offset="1" style="stop-color:#FB6FBB"/>
				</linearGradient>
				<path fill="url(#SVGID_9_)" d="M3106.978,2825.703c0,45.475-227.531,81.459-503.734,80.391
					c-271.385-1.049-487.936-37.596-487.936-81.645s216.551-80.047,487.936-80.41
					C2879.446,2743.668,3106.978,2780.229,3106.978,2825.703z"/>
				<linearGradient id="SVGID_10_" gradientUnits="userSpaceOnUse" x1="2309.5117" y1="2630.3232" x2="2730.3193" y2="2960.3687">
					<stop  offset="0" style="stop-color:#FF9085"/>
					<stop  offset="1" style="stop-color:#FB6FBB"/>
				</linearGradient>
				<polygon fill="url(#SVGID_10_)" points="3110.848,2898.924 3110.848,2831.006 2111.922,2829.459 2111.922,2903.168 				"/>
				
					<linearGradient id="SVGID_11_" gradientUnits="userSpaceOnUse" x1="3442.54" y1="2937.123" x2="2207.5864" y2="2733.3291" gradientTransform="matrix(1 0.0219 0 1 0 -26.6951)">
					<stop  offset="0" style="stop-color:#311944"/>
					<stop  offset="1" style="stop-color:#893976"/>
				</linearGradient>
				<path fill="url(#SVGID_11_)" d="M3110.848,2831.279c0,45.818-229.282,81.998-507.542,80.83
					c-273.332-1.148-491.385-38.025-491.385-82.385c0-44.36,218.053-80.559,491.385-80.855
					C2881.565,2748.566,3110.848,2785.461,3110.848,2831.279z"/>
				
					<linearGradient id="SVGID_12_" gradientUnits="userSpaceOnUse" x1="2612.5098" y1="2864.2793" x2="2609.0671" y2="2688.7114" gradientTransform="matrix(1 0.0219 0 1 0 -26.6951)">
					<stop  offset="0" style="stop-color:#FF9085"/>
					<stop  offset="1" style="stop-color:#FB6FBB"/>
				</linearGradient>
				<path fill="url(#SVGID_12_)" d="M3106.978,2825.703c0,45.475-227.531,81.459-503.734,80.391
					c-271.385-1.049-487.936-37.596-487.936-81.645s216.551-80.047,487.936-80.41
					C2879.446,2743.668,3106.978,2780.229,3106.978,2825.703z"/>
			</g>
			<g>
				<linearGradient id="SVGID_13_" gradientUnits="userSpaceOnUse" x1="2306.9609" y1="2494.2344" x2="2730.6357" y2="2826.5286">
					<stop  offset="0" style="stop-color:#FF9085"/>
					<stop  offset="1" style="stop-color:#FB6FBB"/>
				</linearGradient>
				<path fill="url(#SVGID_13_)" d="M2111.922,2689.76v73.709l0.106,0.005c4.519,44.487,190.591,122.321,460.852,120.931
					c428.269-2.201,531.574-79.744,537.819-125.18h0.148v-67.918L2111.922,2689.76z"/>
				
					<linearGradient id="SVGID_14_" gradientUnits="userSpaceOnUse" x1="3442.54" y1="2797.4229" x2="2207.5864" y2="2593.6289" gradientTransform="matrix(1 0.0219 0 1 0 -26.6951)">
					<stop  offset="0" style="stop-color:#311944"/>
					<stop  offset="1" style="stop-color:#893976"/>
				</linearGradient>
				<path fill="url(#SVGID_14_)" d="M3110.848,2691.579c0,45.819-229.282,81.999-507.542,80.83
					c-273.332-1.147-491.385-38.024-491.385-82.385s218.053-80.558,491.385-80.854
					C2881.565,2608.867,3110.848,2645.761,3110.848,2691.579z"/>
				
					<linearGradient id="SVGID_15_" gradientUnits="userSpaceOnUse" x1="2612.5088" y1="2724.5811" x2="2609.0662" y2="2549.0132" gradientTransform="matrix(1 0.0219 0 1 0 -26.6951)">
					<stop  offset="0" style="stop-color:#FF9085"/>
					<stop  offset="1" style="stop-color:#FB6FBB"/>
				</linearGradient>
				<path fill="url(#SVGID_15_)" d="M3106.978,2686.004c0,45.475-227.531,81.459-503.734,80.391
					c-271.385-1.05-487.936-37.596-487.936-81.645s216.551-80.047,487.936-80.41
					C2879.446,2603.969,3106.978,2640.529,3106.978,2686.004z"/>
				<linearGradient id="SVGID_16_" gradientUnits="userSpaceOnUse" x1="2309.5117" y1="2490.624" x2="2730.3193" y2="2820.6694">
					<stop  offset="0" style="stop-color:#FF9085"/>
					<stop  offset="1" style="stop-color:#FB6FBB"/>
				</linearGradient>
				<polygon fill="url(#SVGID_16_)" points="3110.848,2759.225 3110.848,2691.307 2111.922,2689.76 2111.922,2763.469 				"/>
				
					<linearGradient id="SVGID_17_" gradientUnits="userSpaceOnUse" x1="3442.54" y1="2797.4229" x2="2207.5864" y2="2593.6289" gradientTransform="matrix(1 0.0219 0 1 0 -26.6951)">
					<stop  offset="0" style="stop-color:#311944"/>
					<stop  offset="1" style="stop-color:#893976"/>
				</linearGradient>
				<path fill="url(#SVGID_17_)" d="M3110.848,2691.579c0,45.819-229.282,81.999-507.542,80.83
					c-273.332-1.147-491.385-38.024-491.385-82.385s218.053-80.558,491.385-80.854
					C2881.565,2608.867,3110.848,2645.761,3110.848,2691.579z"/>
				
					<linearGradient id="SVGID_18_" gradientUnits="userSpaceOnUse" x1="2612.5088" y1="2724.5811" x2="2609.0662" y2="2549.0132" gradientTransform="matrix(1 0.0219 0 1 0 -26.6951)">
					<stop  offset="0" style="stop-color:#FF9085"/>
					<stop  offset="1" style="stop-color:#FB6FBB"/>
				</linearGradient>
				<path fill="url(#SVGID_18_)" d="M3106.978,2686.004c0,45.475-227.531,81.459-503.734,80.391
					c-271.385-1.05-487.936-37.596-487.936-81.645s216.551-80.047,487.936-80.41
					C2879.446,2603.969,3106.978,2640.529,3106.978,2686.004z"/>
			</g>
			<g>
				<linearGradient id="SVGID_19_" gradientUnits="userSpaceOnUse" x1="2306.9619" y1="2354.1914" x2="2730.6367" y2="2686.4856">
					<stop  offset="0" style="stop-color:#FF9085"/>
					<stop  offset="1" style="stop-color:#FB6FBB"/>
				</linearGradient>
				<path fill="url(#SVGID_19_)" d="M2111.922,2549.717v73.709l0.106,0.005c4.519,44.487,190.591,122.32,460.852,120.931
					c428.269-2.202,531.574-79.744,537.819-125.18h0.148v-67.919L2111.922,2549.717z"/>
				
					<linearGradient id="SVGID_20_" gradientUnits="userSpaceOnUse" x1="3442.5391" y1="2657.3799" x2="2207.5867" y2="2453.5859" gradientTransform="matrix(1 0.0219 0 1 0 -26.6951)">
					<stop  offset="0" style="stop-color:#311944"/>
					<stop  offset="1" style="stop-color:#893976"/>
				</linearGradient>
				<path fill="url(#SVGID_20_)" d="M3110.848,2551.536c0,45.819-229.282,81.999-507.542,80.83
					c-273.332-1.148-491.385-38.024-491.385-82.386c0-44.359,218.053-80.557,491.385-80.854
					C2881.565,2468.824,3110.848,2505.717,3110.848,2551.536z"/>
				
					<linearGradient id="SVGID_21_" gradientUnits="userSpaceOnUse" x1="2612.5098" y1="2584.5371" x2="2609.0671" y2="2408.9692" gradientTransform="matrix(1 0.0219 0 1 0 -26.6951)">
					<stop  offset="0" style="stop-color:#FF9085"/>
					<stop  offset="1" style="stop-color:#FB6FBB"/>
				</linearGradient>
				<path fill="url(#SVGID_21_)" d="M3106.978,2545.961c0,45.475-227.531,81.459-503.734,80.391
					c-271.385-1.05-487.936-37.596-487.936-81.645s216.551-80.048,487.936-80.41
					C2879.446,2463.926,3106.978,2500.486,3106.978,2545.961z"/>
				<linearGradient id="SVGID_22_" gradientUnits="userSpaceOnUse" x1="2309.5117" y1="2350.5811" x2="2730.3193" y2="2680.6265">
					<stop  offset="0" style="stop-color:#FF9085"/>
					<stop  offset="1" style="stop-color:#FB6FBB"/>
				</linearGradient>
				<polygon fill="url(#SVGID_22_)" points="3110.848,2619.182 3110.848,2551.263 2111.922,2549.717 2111.922,2623.426 				"/>
				
					<linearGradient id="SVGID_23_" gradientUnits="userSpaceOnUse" x1="3442.5391" y1="2657.3799" x2="2207.5867" y2="2453.5859" gradientTransform="matrix(1 0.0219 0 1 0 -26.6951)">
					<stop  offset="0" style="stop-color:#311944"/>
					<stop  offset="1" style="stop-color:#893976"/>
				</linearGradient>
				<path fill="url(#SVGID_23_)" d="M3110.848,2551.536c0,45.819-229.282,81.999-507.542,80.83
					c-273.332-1.148-491.385-38.024-491.385-82.386c0-44.359,218.053-80.557,491.385-80.854
					C2881.565,2468.824,3110.848,2505.717,3110.848,2551.536z"/>
				
					<linearGradient id="SVGID_24_" gradientUnits="userSpaceOnUse" x1="2612.5098" y1="2584.5371" x2="2609.0671" y2="2408.9692" gradientTransform="matrix(1 0.0219 0 1 0 -26.6951)">
					<stop  offset="0" style="stop-color:#FF9085"/>
					<stop  offset="1" style="stop-color:#FB6FBB"/>
				</linearGradient>
				<path fill="url(#SVGID_24_)" d="M3106.978,2545.961c0,45.475-227.531,81.459-503.734,80.391
					c-271.385-1.05-487.936-37.596-487.936-81.645s216.551-80.048,487.936-80.41
					C2879.446,2463.926,3106.978,2500.486,3106.978,2545.961z"/>
			</g>
			<g>
				<linearGradient id="SVGID_25_" gradientUnits="userSpaceOnUse" x1="2306.9619" y1="2214.1484" x2="2730.6362" y2="2546.4421">
					<stop  offset="0" style="stop-color:#FF9085"/>
					<stop  offset="1" style="stop-color:#FB6FBB"/>
				</linearGradient>
				<path fill="url(#SVGID_25_)" d="M2111.922,2409.674v73.709l0.106,0.004c4.519,44.488,190.591,122.32,460.852,120.932
					c428.269-2.202,531.574-79.744,537.819-125.18h0.148v-67.919L2111.922,2409.674z"/>
				
					<linearGradient id="SVGID_26_" gradientUnits="userSpaceOnUse" x1="3442.5391" y1="2517.3359" x2="2207.5867" y2="2313.542" gradientTransform="matrix(1 0.0219 0 1 0 -26.6951)">
					<stop  offset="0" style="stop-color:#311944"/>
					<stop  offset="1" style="stop-color:#893976"/>
				</linearGradient>
				<path fill="url(#SVGID_26_)" d="M3110.848,2411.493c0,45.818-229.282,81.999-507.542,80.829
					c-273.332-1.146-491.385-38.024-491.385-82.384c0-44.36,218.053-80.558,491.385-80.855
					C2881.565,2328.781,3110.848,2365.675,3110.848,2411.493z"/>
				
					<linearGradient id="SVGID_27_" gradientUnits="userSpaceOnUse" x1="2612.5088" y1="2444.4951" x2="2609.0662" y2="2268.9263" gradientTransform="matrix(1 0.0219 0 1 0 -26.6951)">
					<stop  offset="0" style="stop-color:#FF9085"/>
					<stop  offset="1" style="stop-color:#FB6FBB"/>
				</linearGradient>
				<path fill="url(#SVGID_27_)" d="M3106.978,2405.918c0,45.475-227.531,81.459-503.734,80.391
					c-271.385-1.051-487.936-37.596-487.936-81.645s216.551-80.048,487.936-80.411
					C2879.446,2323.883,3106.978,2360.442,3106.978,2405.918z"/>
				<linearGradient id="SVGID_28_" gradientUnits="userSpaceOnUse" x1="2309.5127" y1="2210.5391" x2="2730.3203" y2="2540.5845">
					<stop  offset="0" style="stop-color:#FF9085"/>
					<stop  offset="1" style="stop-color:#FB6FBB"/>
				</linearGradient>
				<polygon fill="url(#SVGID_28_)" points="3110.848,2479.139 3110.848,2411.22 2111.922,2409.674 2111.922,2483.383 				"/>
				
					<linearGradient id="SVGID_29_" gradientUnits="userSpaceOnUse" x1="3442.5391" y1="2517.3359" x2="2207.5867" y2="2313.542" gradientTransform="matrix(1 0.0219 0 1 0 -26.6951)">
					<stop  offset="0" style="stop-color:#311944"/>
					<stop  offset="1" style="stop-color:#893976"/>
				</linearGradient>
				<path fill="url(#SVGID_29_)" d="M3110.848,2411.493c0,45.818-229.282,81.999-507.542,80.829
					c-273.332-1.146-491.385-38.024-491.385-82.384c0-44.36,218.053-80.558,491.385-80.855
					C2881.565,2328.781,3110.848,2365.675,3110.848,2411.493z"/>
				
					<linearGradient id="SVGID_30_" gradientUnits="userSpaceOnUse" x1="2612.5088" y1="2444.4951" x2="2609.0662" y2="2268.9263" gradientTransform="matrix(1 0.0219 0 1 0 -26.6951)">
					<stop  offset="0" style="stop-color:#FF9085"/>
					<stop  offset="1" style="stop-color:#FB6FBB"/>
				</linearGradient>
				<path fill="url(#SVGID_30_)" d="M3106.978,2405.918c0,45.475-227.531,81.459-503.734,80.391
					c-271.385-1.051-487.936-37.596-487.936-81.645s216.551-80.048,487.936-80.411
					C2879.446,2323.883,3106.978,2360.442,3106.978,2405.918z"/>
			</g>
			<g>
				<linearGradient id="SVGID_31_" gradientUnits="userSpaceOnUse" x1="2306.9619" y1="2074.1055" x2="2730.6362" y2="2406.3992">
					<stop  offset="0" style="stop-color:#FF9085"/>
					<stop  offset="1" style="stop-color:#FB6FBB"/>
				</linearGradient>
				<path fill="url(#SVGID_31_)" d="M2111.922,2269.631v73.709l0.106,0.004c4.519,44.488,190.591,122.32,460.852,120.932
					c428.269-2.203,531.574-79.744,537.819-125.18h0.148v-67.919L2111.922,2269.631z"/>
				
					<linearGradient id="SVGID_32_" gradientUnits="userSpaceOnUse" x1="3442.5391" y1="2377.293" x2="2207.5867" y2="2173.499" gradientTransform="matrix(1 0.0219 0 1 0 -26.6951)">
					<stop  offset="0" style="stop-color:#311944"/>
					<stop  offset="1" style="stop-color:#893976"/>
				</linearGradient>
				<path fill="url(#SVGID_32_)" d="M3110.848,2271.449c0,45.819-229.282,81.999-507.542,80.83
					c-273.332-1.147-491.385-38.024-491.385-82.385c0-44.359,218.053-80.558,491.385-80.854
					C2881.565,2188.737,3110.848,2225.631,3110.848,2271.449z"/>
				
					<linearGradient id="SVGID_33_" gradientUnits="userSpaceOnUse" x1="2612.5098" y1="2304.4521" x2="2609.0671" y2="2128.8823" gradientTransform="matrix(1 0.0219 0 1 0 -26.6951)">
					<stop  offset="0" style="stop-color:#FF9085"/>
					<stop  offset="1" style="stop-color:#FB6FBB"/>
				</linearGradient>
				<path fill="url(#SVGID_33_)" d="M3106.978,2265.874c0,45.475-227.531,81.46-503.734,80.392
					c-271.385-1.051-487.936-37.596-487.936-81.645s216.551-80.048,487.936-80.411
					C2879.446,2183.84,3106.978,2220.399,3106.978,2265.874z"/>
				<linearGradient id="SVGID_34_" gradientUnits="userSpaceOnUse" x1="2309.5107" y1="2070.4951" x2="2730.3188" y2="2400.5408">
					<stop  offset="0" style="stop-color:#FF9085"/>
					<stop  offset="1" style="stop-color:#FB6FBB"/>
				</linearGradient>
				<polygon fill="url(#SVGID_34_)" points="3110.848,2339.096 3110.848,2271.177 2111.922,2269.631 2111.922,2343.34 				"/>
				
					<linearGradient id="SVGID_35_" gradientUnits="userSpaceOnUse" x1="3442.5391" y1="2377.293" x2="2207.5867" y2="2173.499" gradientTransform="matrix(1 0.0219 0 1 0 -26.6951)">
					<stop  offset="0" style="stop-color:#311944"/>
					<stop  offset="1" style="stop-color:#893976"/>
				</linearGradient>
				<path fill="url(#SVGID_35_)" d="M3110.848,2271.449c0,45.819-229.282,81.999-507.542,80.83
					c-273.332-1.147-491.385-38.024-491.385-82.385c0-44.359,218.053-80.558,491.385-80.854
					C2881.565,2188.737,3110.848,2225.631,3110.848,2271.449z"/>
				
					<linearGradient id="SVGID_36_" gradientUnits="userSpaceOnUse" x1="2612.5098" y1="2304.4521" x2="2609.0671" y2="2128.8823" gradientTransform="matrix(1 0.0219 0 1 0 -26.6951)">
					<stop  offset="0" style="stop-color:#FF9085"/>
					<stop  offset="1" style="stop-color:#FB6FBB"/>
				</linearGradient>
				<path fill="url(#SVGID_36_)" d="M3106.978,2265.874c0,45.475-227.531,81.46-503.734,80.392
					c-271.385-1.051-487.936-37.596-487.936-81.645s216.551-80.048,487.936-80.411
					C2879.446,2183.84,3106.978,2220.399,3106.978,2265.874z"/>
			</g>
			<g>
				<linearGradient id="SVGID_37_" gradientUnits="userSpaceOnUse" x1="2306.9619" y1="1934.0625" x2="2730.6362" y2="2266.3562">
					<stop  offset="0" style="stop-color:#FF9085"/>
					<stop  offset="1" style="stop-color:#FB6FBB"/>
				</linearGradient>
				<path fill="url(#SVGID_37_)" d="M2111.922,2129.588v73.709l0.106,0.004c4.519,44.488,190.591,122.32,460.852,120.932
					c428.269-2.203,531.574-79.744,537.819-125.18h0.148v-67.92L2111.922,2129.588z"/>
				
					<linearGradient id="SVGID_38_" gradientUnits="userSpaceOnUse" x1="3442.54" y1="2237.25" x2="2207.5864" y2="2033.4559" gradientTransform="matrix(1 0.0219 0 1 0 -26.6951)">
					<stop  offset="0" style="stop-color:#311944"/>
					<stop  offset="1" style="stop-color:#893976"/>
				</linearGradient>
				<path fill="url(#SVGID_38_)" d="M3110.848,2131.406c0,45.819-229.282,81.999-507.542,80.83
					c-273.332-1.148-491.385-38.025-491.385-82.385s218.053-80.558,491.385-80.855
					C2881.565,2048.694,3110.848,2085.588,3110.848,2131.406z"/>
				
					<linearGradient id="SVGID_39_" gradientUnits="userSpaceOnUse" x1="2612.5098" y1="2164.4082" x2="2609.0671" y2="1988.8383" gradientTransform="matrix(1 0.0219 0 1 0 -26.6951)">
					<stop  offset="0" style="stop-color:#FF9085"/>
					<stop  offset="1" style="stop-color:#FB6FBB"/>
				</linearGradient>
				<path fill="url(#SVGID_39_)" d="M3106.978,2125.831c0,45.475-227.531,81.459-503.734,80.392
					c-271.385-1.051-487.936-37.596-487.936-81.646c0-44.048,216.551-80.048,487.936-80.411
					C2879.446,2043.797,3106.978,2080.355,3106.978,2125.831z"/>
				<linearGradient id="SVGID_40_" gradientUnits="userSpaceOnUse" x1="2309.5117" y1="1930.4521" x2="2730.3193" y2="2260.4976">
					<stop  offset="0" style="stop-color:#FF9085"/>
					<stop  offset="1" style="stop-color:#FB6FBB"/>
				</linearGradient>
				<polygon fill="url(#SVGID_40_)" points="3110.848,2199.053 3110.848,2131.133 2111.922,2129.588 2111.922,2203.297 				"/>
				
					<linearGradient id="SVGID_41_" gradientUnits="userSpaceOnUse" x1="3442.54" y1="2237.25" x2="2207.5864" y2="2033.4559" gradientTransform="matrix(1 0.0219 0 1 0 -26.6951)">
					<stop  offset="0" style="stop-color:#311944"/>
					<stop  offset="1" style="stop-color:#893976"/>
				</linearGradient>
				<path fill="url(#SVGID_41_)" d="M3110.848,2131.406c0,45.819-229.282,81.999-507.542,80.83
					c-273.332-1.148-491.385-38.025-491.385-82.385s218.053-80.558,491.385-80.855
					C2881.565,2048.694,3110.848,2085.588,3110.848,2131.406z"/>
				
					<linearGradient id="SVGID_42_" gradientUnits="userSpaceOnUse" x1="2612.5098" y1="2164.4082" x2="2609.0671" y2="1988.8383" gradientTransform="matrix(1 0.0219 0 1 0 -26.6951)">
					<stop  offset="0" style="stop-color:#FF9085"/>
					<stop  offset="1" style="stop-color:#FB6FBB"/>
				</linearGradient>
				<path fill="url(#SVGID_42_)" d="M3106.978,2125.831c0,45.475-227.531,81.459-503.734,80.392
					c-271.385-1.051-487.936-37.596-487.936-81.646c0-44.048,216.551-80.048,487.936-80.411
					C2879.446,2043.797,3106.978,2080.355,3106.978,2125.831z"/>
			</g>
			<g>
				<linearGradient id="SVGID_43_" gradientUnits="userSpaceOnUse" x1="2306.9609" y1="1794.019" x2="2730.6353" y2="2126.3127">
					<stop  offset="0" style="stop-color:#FF9085"/>
					<stop  offset="1" style="stop-color:#FB6FBB"/>
				</linearGradient>
				<path fill="url(#SVGID_43_)" d="M2111.922,1989.545v73.709l0.106,0.004c4.519,44.488,190.591,122.32,460.852,120.932
					c428.269-2.203,531.574-79.744,537.819-125.181h0.148v-67.919L2111.922,1989.545z"/>
				
					<linearGradient id="SVGID_44_" gradientUnits="userSpaceOnUse" x1="3442.5391" y1="2097.207" x2="2207.5867" y2="1893.4132" gradientTransform="matrix(1 0.0219 0 1 0 -26.6951)">
					<stop  offset="0" style="stop-color:#311944"/>
					<stop  offset="1" style="stop-color:#893976"/>
				</linearGradient>
				<path fill="url(#SVGID_44_)" d="M3110.848,1991.363c0,45.818-229.282,81.999-507.542,80.83
					c-273.332-1.148-491.385-38.025-491.385-82.385s218.053-80.559,491.385-80.855
					C2881.565,1908.651,3110.848,1945.545,3110.848,1991.363z"/>
				
					<linearGradient id="SVGID_45_" gradientUnits="userSpaceOnUse" x1="2612.5098" y1="2024.3652" x2="2609.0671" y2="1848.7964" gradientTransform="matrix(1 0.0219 0 1 0 -26.6951)">
					<stop  offset="0" style="stop-color:#FF9085"/>
					<stop  offset="1" style="stop-color:#FB6FBB"/>
				</linearGradient>
				<path fill="url(#SVGID_45_)" d="M3106.978,1985.788c0,45.474-227.531,81.459-503.734,80.391
					c-271.385-1.05-487.936-37.597-487.936-81.646c0-44.048,216.551-80.047,487.936-80.41
					C2879.446,1903.754,3106.978,1940.313,3106.978,1985.788z"/>
				<linearGradient id="SVGID_46_" gradientUnits="userSpaceOnUse" x1="2309.5117" y1="1790.4087" x2="2730.3193" y2="2120.4541">
					<stop  offset="0" style="stop-color:#FF9085"/>
					<stop  offset="1" style="stop-color:#FB6FBB"/>
				</linearGradient>
				<polygon fill="url(#SVGID_46_)" points="3110.848,2059.009 3110.848,1991.09 2111.922,1989.545 2111.922,2063.254 				"/>
				
					<linearGradient id="SVGID_47_" gradientUnits="userSpaceOnUse" x1="3442.5391" y1="2097.207" x2="2207.5867" y2="1893.4132" gradientTransform="matrix(1 0.0219 0 1 0 -26.6951)">
					<stop  offset="0" style="stop-color:#311944"/>
					<stop  offset="1" style="stop-color:#893976"/>
				</linearGradient>
				<path fill="url(#SVGID_47_)" d="M3110.848,1991.363c0,45.818-229.282,81.999-507.542,80.83
					c-273.332-1.148-491.385-38.025-491.385-82.385s218.053-80.559,491.385-80.855
					C2881.565,1908.651,3110.848,1945.545,3110.848,1991.363z"/>
				
					<linearGradient id="SVGID_48_" gradientUnits="userSpaceOnUse" x1="2612.5098" y1="2024.3652" x2="2609.0671" y2="1848.7964" gradientTransform="matrix(1 0.0219 0 1 0 -26.6951)">
					<stop  offset="0" style="stop-color:#FF9085"/>
					<stop  offset="1" style="stop-color:#FB6FBB"/>
				</linearGradient>
				<path fill="url(#SVGID_48_)" d="M3106.978,1985.788c0,45.474-227.531,81.459-503.734,80.391
					c-271.385-1.05-487.936-37.597-487.936-81.646c0-44.048,216.551-80.047,487.936-80.41
					C2879.446,1903.754,3106.978,1940.313,3106.978,1985.788z"/>
			</g>
		</g>
		<g>
			<g>
				<path fill="#BFC8D6" d="M3174.336,3025.25l-2684.558-23.205v68.66c0,18.635,11.709,34.48,27.567,37.305l759.112,135.203
					c9.01,1.604,18.145,2.029,27.235,1.268l1841.47-154.152c16.44-1.375,29.173-17.271,29.173-36.418V3025.25z"/>
				<g>
					<path fill="#BFC8D6" d="M2186.415,2915.221L480.162,3040.824c-30.533,2.248-55.357-21.635-55.357-53.349V1716.878
						c0-31.714,24.824-57.424,55.357-57.424l60.362,34.792l1645.891-34.792c25.153,0,45.491,23.241,45.491,51.911v1148.597
						C2231.906,2888.63,2211.568,2913.369,2186.415,2915.221z"/>
					<path fill="#FFFFFF" d="M2213.621,2915.221L507.368,3040.824c-30.533,2.248-55.357-21.635-55.357-53.349V1716.878
						c0-31.714,24.824-57.424,55.357-57.424h1706.253c25.154,0,45.491,23.241,45.491,51.911v1148.597
						C2259.112,2888.63,2238.775,2913.369,2213.621,2915.221z"/>
					<path fill="#D8DEE8" d="M2160.467,2834.242L571.271,2943.346c-24.847,1.706-45.039-17.896-45.039-43.787V1787.149
						c0-25.891,20.192-46.967,45.039-47.074l1589.196-6.851c20.75-0.089,37.534,18.955,37.534,42.537v1013.207
						C2198.001,2812.549,2181.217,2832.818,2160.467,2834.242z"/>
					<g>
						<polygon fill="#FFFFFF" points="1134.903,1844.475 706.017,1845.592 705.953,1804.701 1134.842,1804.839 						"/>
						<polygon fill="#FFFFFF" points="1336.863,1832.636 1237.786,1832.81 1237.743,1804.873 1336.819,1804.905 						"/>
						<polygon fill="#FFFFFF" points="1336.922,1871.166 1237.846,1871.627 1237.803,1843.689 1336.88,1843.435 						"/>
						<polygon fill="#FFFFFF" points="1830.661,1868.871 1446.289,1870.658 1446.246,1843.154 1830.62,1842.168 						"/>
						<polygon fill="#FFFFFF" points="1893.748,1905.498 1513.2,1908.367 1513.157,1881.003 1893.707,1878.926 						"/>
						<polygon fill="#FFFFFF" points="1893.806,1942.418 1513.258,1946.387 1513.217,1919.023 1893.764,1915.846 						"/>
						<polygon fill="#FFFFFF" points="1893.862,1979.338 1513.316,1984.408 1513.275,1957.043 1893.821,1952.766 						"/>
						<polygon fill="#FFFFFF" points="1336.982,1909.695 1237.906,1910.442 1237.863,1882.505 1336.939,1881.965 						"/>
						<polygon fill="#FFFFFF" points="1337.041,1948.226 1237.966,1949.259 1237.923,1921.321 1336.998,1920.494 						"/>
						<polygon fill="#FFFFFF" points="1337.101,1986.756 1238.026,1988.074 1237.983,1960.137 1337.059,1959.023 						"/>
						<polygon fill="#FFFFFF" points="1337.16,2025.285 1238.086,2026.891 1238.043,1998.953 1337.117,1997.554 						"/>
						<polygon fill="#FFFFFF" points="1602.646,2020.98 1358.78,2024.934 1358.738,1997.248 1602.605,1993.802 						"/>
						<polygon fill="#FFFFFF" points="1337.22,2063.814 1238.146,2065.707 1238.103,2037.77 1337.178,2036.083 						"/>
						<polygon fill="#FFFFFF" points="1337.279,2102.344 1238.206,2104.523 1238.163,2076.586 1337.236,2074.613 						"/>
						<polygon fill="#FFFFFF" points="1337.339,2140.874 1238.267,2143.34 1238.223,2115.402 1337.296,2113.143 						"/>
						<polygon fill="#FFFFFF" points="1716.961,2056.561 1446.585,2061.725 1446.542,2034.222 1716.92,2029.619 						"/>
						<polygon fill="#FFFFFF" points="1857.485,2090.902 1513.493,2098.469 1513.451,2071.104 1857.443,2064.254 						"/>
						<polygon fill="#FFFFFF" points="1857.542,2127.928 1513.552,2136.488 1513.51,2109.125 1857.501,2101.279 						"/>
						<polygon fill="#FFFFFF" points="1337.398,2179.403 1238.326,2182.155 1238.283,2154.219 1337.356,2151.672 						"/>
						<polygon fill="#FFFFFF" points="1337.458,2217.934 1238.386,2220.972 1238.343,2193.034 1337.415,2190.202 						"/>
						<polygon fill="#FFFFFF" points="1337.518,2256.463 1238.446,2259.787 1238.403,2231.851 1337.475,2228.732 						"/>
						<polygon fill="#FFFFFF" points="1337.577,2294.992 1238.506,2298.604 1238.463,2270.666 1337.534,2267.262 						"/>
						<polygon fill="#FFFFFF" points="1337.638,2333.522 1238.566,2337.42 1238.523,2309.482 1337.594,2305.791 						"/>
						<polygon fill="#FFFFFF" points="1337.696,2372.053 1238.626,2376.236 1238.583,2348.299 1337.653,2344.32 						"/>
						<polygon fill="#FFFFFF" points="1337.756,2410.582 1238.687,2415.053 1238.644,2387.115 1337.713,2382.851 						"/>
						<polygon fill="#FFFFFF" points="1337.815,2449.111 1238.746,2453.869 1238.703,2425.932 1337.772,2421.381 						"/>
						<polygon fill="#FFFFFF" points="1337.875,2487.641 1238.807,2492.685 1238.764,2464.747 1337.832,2459.91 						"/>
						<polygon fill="#FFFFFF" points="1337.935,2526.171 1238.866,2531.501 1238.823,2503.563 1337.892,2498.439 						"/>
						<polygon fill="#FFFFFF" points="1337.994,2564.701 1238.926,2570.317 1238.884,2542.379 1337.951,2536.969 						"/>
						<polygon fill="#FFFFFF" points="1338.054,2603.23 1238.986,2609.133 1238.943,2581.195 1338.012,2575.499 						"/>
						<polygon fill="#FFFFFF" points="1338.113,2641.76 1239.046,2647.949 1239.004,2620.012 1338.07,2614.029 						"/>
						<polygon fill="#FFFFFF" points="1338.174,2680.289 1239.106,2686.766 1239.063,2658.828 1338.13,2652.559 						"/>
						<polygon fill="#FFFFFF" points="1338.232,2718.819 1239.166,2725.582 1239.123,2697.645 1338.189,2691.088 						"/>
						<polygon fill="#FFFFFF" points="1338.292,2757.35 1239.227,2764.397 1239.184,2736.461 1338.249,2729.617 						"/>
						<polygon fill="#FFFFFF" points="1338.352,2795.879 1239.286,2803.214 1239.243,2775.276 1338.309,2768.147 						"/>
						<polygon fill="#FFFFFF" points="1338.411,2834.408 1239.346,2842.029 1239.303,2814.093 1338.368,2806.678 						"/>
						<polygon fill="#FFFFFF" points="1628.019,1832.125 1357.811,1832.599 1357.767,1804.912 1627.977,1805 						"/>
						<polygon fill="#FFFFFF" points="1831.809,2610.916 1447.47,2634.928 1447.428,2607.424 1831.767,2584.213 						"/>
						<polygon fill="#FFFFFF" points="1894.89,2643.898 1514.374,2668.771 1514.333,2641.407 1894.848,2617.326 						"/>
						<polygon fill="#FFFFFF" points="1894.946,2680.818 1514.434,2706.792 1514.391,2679.428 1894.905,2654.246 						"/>
						<polygon fill="#FFFFFF" points="2058.977,2706.072 1688.316,2732.445 1688.275,2705.441 2058.936,2679.841 						"/>
						<polygon fill="#FFFFFF" points="2059.032,2742.519 1688.374,2769.963 1688.333,2742.959 2058.992,2716.287 						"/>
						<polygon fill="#FFFFFF" points="2059.089,2778.964 1688.433,2807.48 1688.392,2780.477 2059.049,2752.732 						"/>
						<polygon fill="#FFFFFF" points="1629.183,2585.884 1358.999,2601.982 1358.957,2574.295 1629.142,2558.758 						"/>
						<polygon fill="#FFFFFF" points="1831.179,2202.791 1446.82,2214.579 1446.778,2187.076 1831.137,2176.088 						"/>
						<polygon fill="#FFFFFF" points="1894.262,2237.778 1513.728,2250.549 1513.687,2223.185 1894.221,2211.205 						"/>
						<polygon fill="#FFFFFF" points="1894.319,2274.698 1513.787,2288.569 1513.744,2261.205 1894.277,2248.125 						"/>
						<polygon fill="#FFFFFF" points="1894.376,2311.619 1513.846,2326.59 1513.803,2299.225 1894.335,2285.046 						"/>
						<polygon fill="#FFFFFF" points="1603.173,2360.84 1359.315,2371.139 1359.272,2343.453 1603.13,2333.661 						"/>
						<polygon fill="#FFFFFF" points="1717.482,2393.446 1447.116,2405.646 1447.073,2378.143 1717.44,2366.506 						"/>
						<polygon fill="#FFFFFF" points="1858,2424.133 1514.022,2440.65 1513.979,2413.286 1857.959,2397.484 						"/>
						<polygon fill="#FFFFFF" points="1858.058,2461.159 1514.081,2478.67 1514.038,2451.307 1858.016,2434.51 						"/>
						<polygon fill="#FFFFFF" points="1934.369,2494.082 1594.533,2512.365 1594.492,2485.168 1934.328,2467.592 						"/>
						<polygon fill="#FFFFFF" points="1934.426,2530.888 1594.592,2550.153 1594.55,2522.957 1934.386,2504.397 						"/>
						<polygon fill="#FFFFFF" points="1628.542,2171.316 1358.346,2178.822 1358.302,2151.135 1628.501,2144.191 						"/>
						<polygon fill="#FFFFFF" points="1134.999,1906.404 889.515,1908.168 889.452,1867.813 1134.938,1866.77 						"/>
						<polygon fill="#FFFFFF" points="826.021,1908.625 872.257,1908.292 872.194,1867.887 825.958,1868.084 						"/>
						<polygon fill="#FFFFFF" points="1135.087,1963.381 889.604,1966.178 889.542,1925.823 1135.026,1923.745 						"/>
						<polygon fill="#FFFFFF" points="826.111,1966.9 872.346,1966.374 872.284,1925.969 826.049,1926.36 						"/>
						<polygon fill="#FFFFFF" points="1135.175,2020.355 889.694,2024.187 889.632,1983.832 1135.114,1980.721 						"/>
						<polygon fill="#FFFFFF" points="826.201,2025.178 872.436,2024.456 872.373,1984.051 826.138,1984.637 						"/>
						<polygon fill="#FFFFFF" points="1135.8,2424.782 706.942,2444.296 706.879,2403.404 1135.739,2385.146 						"/>
						<polygon fill="#FFFFFF" points="1135.896,2486.713 890.429,2499.006 890.366,2458.65 1135.835,2447.077 						"/>
						<polygon fill="#FFFFFF" points="826.938,2502.186 873.172,2499.869 873.108,2459.465 826.876,2461.645 						"/>
						<polygon fill="#FFFFFF" points="1135.983,2543.688 890.519,2557.015 890.456,2516.66 1135.923,2504.053 						"/>
						<polygon fill="#FFFFFF" points="827.028,2560.462 873.261,2557.951 873.198,2517.547 826.967,2519.922 						"/>
						<polygon fill="#FFFFFF" points="1136.071,2600.663 890.607,2615.024 890.545,2574.67 1136.011,2561.028 						"/>
						<polygon fill="#FFFFFF" points="827.118,2618.738 873.351,2616.033 873.288,2575.629 827.056,2578.198 						"/>
						<polygon fill="#FFFFFF" points="1135.264,2077.717 706.39,2086.229 706.325,2045.338 1135.202,2038.082 						"/>
						<polygon fill="#FFFFFF" points="1135.359,2139.646 889.882,2145.643 889.819,2105.289 1135.298,2100.012 						"/>
						<polygon fill="#FFFFFF" points="826.39,2147.193 872.624,2146.064 872.562,2105.659 826.327,2106.653 						"/>
						<polygon fill="#FFFFFF" points="1135.448,2196.623 889.972,2203.652 889.909,2163.298 1135.386,2156.988 						"/>
						<polygon fill="#FFFFFF" points="826.479,2205.471 872.713,2204.146 872.651,2163.741 826.417,2164.93 						"/>
						<polygon fill="#FFFFFF" points="1135.625,2311.314 890.151,2320.424 890.09,2280.07 1135.563,2271.679 						"/>
						<polygon fill="#FFFFFF" points="826.661,2322.781 872.895,2321.064 872.832,2280.66 826.599,2282.24 						"/>
						<polygon fill="#FFFFFF" points="1135.714,2368.289 890.242,2378.434 890.18,2338.079 1135.651,2328.654 						"/>
						<polygon fill="#FFFFFF" points="826.751,2381.058 872.983,2379.146 872.923,2338.742 826.688,2340.518 						"/>
						<polygon fill="#FFFFFF" points="1135.536,2253.598 890.062,2261.662 889.999,2221.307 1135.475,2213.963 						"/>
						<polygon fill="#FFFFFF" points="826.57,2263.747 872.804,2262.229 872.741,2221.824 826.507,2223.207 						"/>
						<polygon fill="#FFFFFF" points="1136.16,2657.619 707.313,2684.515 707.25,2643.623 1136.099,2617.984 						"/>
						<polygon fill="#FFFFFF" points="1136.256,2719.549 890.795,2736.067 890.732,2695.713 1136.194,2679.914 						"/>
						<polygon fill="#FFFFFF" points="827.307,2740.34 873.537,2737.229 873.475,2696.824 827.244,2699.799 						"/>
						<polygon fill="#FFFFFF" points="1136.344,2776.525 890.885,2794.076 890.822,2753.723 1136.282,2736.89 						"/>
						<polygon fill="#FFFFFF" points="827.396,2798.617 873.627,2795.311 873.564,2754.906 827.334,2758.076 						"/>
						<polygon fill="#FFFFFF" points="1136.433,2833.5 890.975,2852.086 890.912,2811.732 1136.37,2793.865 						"/>
						<polygon fill="#FFFFFF" points="827.486,2856.894 873.718,2853.393 873.655,2812.988 827.424,2816.354 						"/>
						<polygon fill="#FFFFFF" points="1188.546,2829.752 1179.1,2830.467 1177.515,1804.854 1186.961,1804.856 						"/>
					</g>
					<path fill="#FFFFFF" d="M1420.755,1694.207c0,11.806-8.782,21.405-19.626,21.439c-10.859,0.034-19.671-9.53-19.671-21.363
						c0-11.833,8.812-21.432,19.671-21.44C1411.973,1672.836,1420.755,1682.4,1420.755,1694.207z"/>
					<path opacity="0.48" fill="#FFFFFF" d="M507.362,3040.825l1697.62-124.969l8.639-0.636c11.541-0.85,22.036-6.555,30.052-15.209
						c-122.163-6.686-198.04-50.038-246.986-94.834c-98.296-89.958-81.246-178.67-187.246-237.816
						c-132.21-73.773-236.166,19.705-336.492-72.525c-60.822-55.918-30.961-97.615-105.804-181.176
						c-82.894-92.551-136.861-61.439-220.169-144.736c-105.334-105.322-52.652-187.266-143.386-262.885
						c-110.073-91.736-228.78-6.828-333.562-94.806c-45.192-37.945-69.991-93.111-82.938-151.78h-79.722
						c-30.532,0-55.357,25.71-55.357,57.424v1270.598C452.011,3019.188,476.831,3043.068,507.362,3040.825z"/>
				</g>
				<linearGradient id="SVGID_49_" gradientUnits="userSpaceOnUse" x1="489.7783" y1="3045.0488" x2="3174.3359" y2="3045.0488">
					<stop  offset="0.494" style="stop-color:#EBEFF2"/>
					<stop  offset="1" style="stop-color:#FFFFFF"/>
				</linearGradient>
				<path fill="url(#SVGID_49_)" d="M2294.013,2908.254l-1804.234,132.21l786.68,140.112c9.01,1.604,18.145,2.029,27.235,1.27
					l1870.643-156.596l-851.623-116.098C2313.188,2907.854,2303.583,2907.553,2294.013,2908.254z"/>
				<polygon fill="#D8DEE8" points="753.044,3041.602 2255.123,2929.893 2720.003,2992.756 1230.863,3112.168 				"/>
			</g>
		</g>
		<g>
			<g>
				<g>
					
						<linearGradient id="SVGID_50_" gradientUnits="userSpaceOnUse" x1="-3347.0361" y1="1145.1616" x2="-2515.4424" y2="1710.0173" gradientTransform="matrix(1.203 9.109080e-004 9.109080e-004 1.1982 6825.2715 -222.1331)">
						<stop  offset="0" style="stop-color:#020202"/>
						<stop  offset="1" style="stop-color:#131014"/>
					</linearGradient>
					<path fill="url(#SVGID_50_)" d="M2854.92,1506.978c-18.828-12.167-1.708-47.507-0.753-123.443
						c1.173-93.054-23.656-110.414-3.751-146.908c24.337-44.625,85.675-63.053,126.321-63.893
						c8.965-0.185,11.057-5.059,86.176,14.369c135.338,35.005,169.183-2.383,229.807,35.035
						c58.569,36.154,32.964,75.68,89.847,118.07c92.2,68.711,189.047-5.425,254.948,52.041
						c62.336,54.356,63.875,192.724-1.59,268.185c-74.216,85.545-208.174,59.726-297.96,42.684
						c-18.893-3.584-114.311-23.611-213.698-96.707c-54.979-40.438-92.743-83.604-116.771-115.409
						c-5.638-6.318-14.436-13.975-26.041-15.216c-13.933-1.492-25.118,6.987-30.51,10.703
						C2922.639,1506,2873.417,1518.929,2854.92,1506.978z"/>
					
						<linearGradient id="SVGID_51_" gradientUnits="userSpaceOnUse" x1="3401.001" y1="2747.3623" x2="3760.438" y2="1106.1577" gradientTransform="matrix(-1 0 0 1 6388.0527 0)">
						<stop  offset="0.0036" style="stop-color:#E38DDD"/>
						<stop  offset="1" style="stop-color:#9571F6"/>
					</linearGradient>
					<path fill="url(#SVGID_51_)" d="M2919.278,1403.055c-20.115-18.326-91.897,16.994-139.469,63.871
						c-55.888,55.073-51.592,99.727-100.364,168.145c-24.246,34.013-65.815,79.804-139.47,119.915
						c5.214,13.034,10.428,26.071,15.641,39.103c35.612,2.143,105.528,0.883,170.753-41.707
						c45.31-29.587,68.622-68.79,113.399-145.988C2884.706,1528.916,2944.421,1425.963,2919.278,1403.055z"/>
					
						<linearGradient id="SVGID_52_" gradientUnits="userSpaceOnUse" x1="-3714.8125" y1="2450.5781" x2="-3602.8159" y2="2450.5781" gradientTransform="matrix(1 0 0 1 6157.7676 0)">
						<stop  offset="0" style="stop-color:#020202"/>
						<stop  offset="1" style="stop-color:#6B3976"/>
					</linearGradient>
					<path fill="url(#SVGID_52_)" d="M2465.912,2450.544l56.034-33.67h25.29c0,0,8.615,32.068,7.638,33.67
						c-11.268,18.463-63.729,32.51-96.466,33.672c-5.435,0.191-13.02,0.221-14.979-3.719
						C2440.109,2473.825,2454.938,2459.831,2465.912,2450.544z"/>
					
						<linearGradient id="SVGID_53_" gradientUnits="userSpaceOnUse" x1="-3661.9951" y1="2494.7158" x2="-3494.9053" y2="1993.4451" gradientTransform="matrix(1 0 0 1 6157.7676 0)">
						<stop  offset="0" style="stop-color:#F2D2B1"/>
						<stop  offset="0.9964" style="stop-color:#F2D2B1"/>
					</linearGradient>
					<path fill="url(#SVGID_53_)" d="M2522.939,2380.134c3.602,20.844-0.955,31.711-5.866,37.799
						c-3.457,4.283-6.526,5.504-27.044,23.238c-6.784,5.865-10.236,9.008-9.452,10.65c0.896,1.881,6.885,0.861,19.813-2.248
						c28.176-6.775,42.336-10.301,45.792-17.082c3.13-6.141,0.362-8.908,0.545-25.639c0.119-11.014,2.358-19.879,4.119-25.426
						C2541.544,2380.995,2532.242,2380.565,2522.939,2380.134z"/>
					
						<linearGradient id="SVGID_54_" gradientUnits="userSpaceOnUse" x1="-3696.9854" y1="2244.9375" x2="-3628.4919" y2="2244.9375" gradientTransform="matrix(1 0 0 1 6157.7676 0)">
						<stop  offset="0" style="stop-color:#020202"/>
						<stop  offset="1" style="stop-color:#6B3976"/>
					</linearGradient>
					<path fill="url(#SVGID_54_)" d="M2482.432,2214.937c0,0-25.316,30.207-21.196,63.324c4.119,33.115,48.456-15.301,54.636-31.664
						c6.184-16.361,13.404-39.674,13.404-39.674S2498.185,2187.581,2482.432,2214.937z"/>
					
						<linearGradient id="SVGID_55_" gradientUnits="userSpaceOnUse" x1="-3736.6826" y1="2433.0088" x2="-3624.8398" y2="2097.4797" gradientTransform="matrix(1 0 0 1 6157.7676 0)">
						<stop  offset="0" style="stop-color:#D3A992"/>
						<stop  offset="0.9964" style="stop-color:#D3A992"/>
					</linearGradient>
					<path fill="url(#SVGID_55_)" d="M2492.089,2167.671c0,0,6.868,35.193-6.231,53.768c-6.524,9.25-15.324,17.098-12.736,24.627
						c1.734,5.047,8.319,8.674,13.897,8.102c10.679-1.098,16.6-17.471,20.775-29.018c6.166-17.057,9.604-53.555,9.604-53.555
						L2492.089,2167.671z"/>
					
						<linearGradient id="SVGID_56_" gradientUnits="userSpaceOnUse" x1="-3598.8721" y1="1867.7246" x2="-3515.4524" y2="2349.9963" gradientTransform="matrix(1 0 0 1 6157.7676 0)">
						<stop  offset="0" style="stop-color:#AB316D"/>
						<stop  offset="1" style="stop-color:#792D3D"/>
					</linearGradient>
					<path fill="url(#SVGID_56_)" d="M2512.267,2197.337c-7.786-2.834-15.572-5.672-23.357-8.508
						c-12.146-27.742-26.97-73.309-22.019-128.693c12.734-142.434,144.468-217.909,159.103-225.987
						c35.892,18.008,72.246,43.413,73.563,75.44c1.652,40.203-53.115,61.455-104.601,120.242
						C2564.052,2065.118,2531.03,2117.698,2512.267,2197.337z"/>
					
						<linearGradient id="SVGID_57_" gradientUnits="userSpaceOnUse" x1="-3481.063" y1="2439.2871" x2="-3362.4495" y2="2063.8948" gradientTransform="matrix(1 0 0 1 6157.7676 0)">
						<stop  offset="0" style="stop-color:#AB316D"/>
						<stop  offset="1" style="stop-color:#792D3D"/>
					</linearGradient>
					<path fill="url(#SVGID_57_)" d="M2520.659,2396.425c-25.725-100.49-19.152-182.492-11.732-229.732
						c11.218-71.398,34.031-216.635,130.997-270.791c21.175-11.826,51.445-22.416,88.339-55.295
						c30.81-27.457,50.393-56.334,62.208-76.678c129.681-38.042,249.293-22.625,302.074,46.924
						c6.099,8.037,21.367,25.468,24.32,51.171c6.666,57.993-50.317,127.812-114.258,142.392
						c-81.262,18.529-128.407-64.91-200.404-37.148c-20.14,7.766-37.214,27.008-71.364,65.496
						c-43.442,48.963-67.863,94.143-77.104,112.221c-27.511,53.83-48.373,93.57-51.416,145.07
						c-0.708,11.998-1.132,36.238-15.185,62.381c-10.787,20.066-25.409,33.447-36.288,41.715
						C2540.783,2394.907,2530.722,2395.667,2520.659,2396.425z"/>
					
						<linearGradient id="SVGID_58_" gradientUnits="userSpaceOnUse" x1="-3481.0527" y1="2439.2949" x2="-3362.4387" y2="2063.9011" gradientTransform="matrix(1 0 0 1 6157.7676 0)">
						<stop  offset="0" style="stop-color:#AB316D"/>
						<stop  offset="1" style="stop-color:#792D3D"/>
					</linearGradient>
					<path opacity="0.3" fill="url(#SVGID_58_)" d="M3116.865,1862.023c-2.953-25.704-18.222-43.135-24.32-51.171
						c-52.781-69.549-172.394-84.966-302.074-46.924c-11.815,20.344-31.398,49.221-62.207,76.678
						c-36.895,32.879-67.165,43.469-88.34,55.295c-59.211,33.07-90.745,100.094-108.901,163.537
						c26.938-41.768,49.997-52.871,67.842-53.068c25.543-0.285,36.955,21.555,67.454,18.572
						c32.599-3.186,40.051-30.141,66.476-33.236c7.909-0.928,17.641,0.293,29.329,6.516c15.598-16.332,27.224-26,40.08-30.955
						c71.997-27.762,119.143,55.678,200.404,37.148C3066.548,1989.835,3123.531,1920.017,3116.865,1862.023z"/>
					
						<linearGradient id="SVGID_59_" gradientUnits="userSpaceOnUse" x1="-3314.147" y1="1819.0479" x2="-3230.9194" y2="2300.2085" gradientTransform="matrix(1 0 0 1 6157.7676 0)">
						<stop  offset="0" style="stop-color:#AB316D"/>
						<stop  offset="1" style="stop-color:#792D3D"/>
					</linearGradient>
					<path fill="url(#SVGID_59_)" d="M2587.85,1940.847c14.678-0.779,37.28-1.23,64.546,1.463
						c129.394,12.787,165.063,76.791,272.005,92.41c25.297,3.695,137.934,20.145,186.719-44.969
						c35.024-46.748,29.726-127.301-8.584-158.982c-16.213-13.409-32.265-13.036-136.098-12.097
						c-39.104,0.354-78.209,0.48-117.312,0.979c-165.521,2.109-197.177-9.354-227.293,18.023
						C2607.783,1850.446,2587.239,1877.878,2587.85,1940.847z"/>
					<g>
						<g>
							
								<linearGradient id="SVGID_60_" gradientUnits="userSpaceOnUse" x1="3203.999" y1="2704.2158" x2="3563.4353" y2="1063.0155" gradientTransform="matrix(-1 0 0 1 6388.0527 0)">
								<stop  offset="0.0036" style="stop-color:#E38DDD"/>
								<stop  offset="1" style="stop-color:#9571F6"/>
							</linearGradient>
							<path fill="url(#SVGID_60_)" d="M2937.284,1409.771c0,0,193.149-56.33,213.187,85.074
								c19.205,135.531-79.179,197.727-34.414,335.006c5.188,15.912-367.677-56.979-367.677-56.979
								c49.772-62.095,61.339-113.322,62.527-148.941c1.305-39.049-9.951-56.798,0-102.96c0,0,11.104-51.506,51.166-95.733
								C2867.824,1418.889,2874.68,1412.276,2937.284,1409.771z"/>
						</g>
					</g>
					<g>
						
							<linearGradient id="SVGID_61_" gradientUnits="userSpaceOnUse" x1="5162.8496" y1="841.478" x2="5171.3491" y2="615.0842" gradientTransform="matrix(-0.984 0.1784 0.1784 0.984 7906.2051 -244.2395)">
							<stop  offset="0" style="stop-color:#F2D2B1"/>
							<stop  offset="0.9964" style="stop-color:#F2D2B1"/>
						</linearGradient>
						<path fill="url(#SVGID_61_)" d="M2979.233,1325.027c-1.77,8.267-10.776,52.625,7.372,64.039
							c3.935,2.475,11.493,3.891,26.613,6.725c9.898,1.855,18.204,2.993,24.062,3.694c-0.846,7.438-3.352,19.545-11.937,30.559
							c-24.063,30.872-72.313,22.883-79.193,21.629c-24.27-4.419-48.151-11.917-53.919-16.5
							c-8.782-6.978-15.687-12.214-19.771-17.533c9.393-4.539,28.354-16.508,41.078-20.425c9.51-2.925,18.437-5.014,26.558-6.512
							c1.333-8.568,2.67-17.137,4.005-25.707C2955.813,1351.672,2967.523,1338.35,2979.233,1325.027z"/>
						
							<linearGradient id="SVGID_62_" gradientUnits="userSpaceOnUse" x1="5160.1963" y1="641.6157" x2="5156.5581" y2="934.7386" gradientTransform="matrix(-0.984 0.1784 0.1784 0.984 7906.2051 -244.2395)">
							<stop  offset="0" style="stop-color:#F2D2B1"/>
							<stop  offset="0.9964" style="stop-color:#D3A992"/>
						</linearGradient>
						<path fill="url(#SVGID_62_)" d="M2980.083,1347.134c0,0-3.279,32.507-34.88,38.236c-28.294,5.129-49.592-63.242-35.112-80.927
							c4.83-5.899,16.754-11.511,27.092-11.214c7.27,0.209,31.825,9.562,35.253,34.133c4.891-5.153,10.983-6.634,13.989-4.476
							c3.81,2.737,1.769,10.694,1.305,12.497C2986.127,1341.63,2982.048,1345.501,2980.083,1347.134z"/>
					</g>
				</g>
			</g>
			<g>
				
					<linearGradient id="SVGID_63_" gradientUnits="userSpaceOnUse" x1="-1946.6768" y1="1812.7632" x2="-1623.5586" y2="1812.7632" gradientTransform="matrix(1 0 0 1 4647.7744 0)">
					<stop  offset="0" style="stop-color:#40447E"/>
					<stop  offset="0.9964" style="stop-color:#3C3B6B"/>
				</linearGradient>
				<path fill="url(#SVGID_63_)" d="M2709.011,1788.749l295.623,14.385c4.068,0.199,7.78,2.379,9.933,5.835l8.181,13.129
					c4.07,6.535-0.82,14.964-8.516,14.671l-313.134-11.928L2709.011,1788.749z"/>
				
					<linearGradient id="SVGID_64_" gradientUnits="userSpaceOnUse" x1="-2153.3125" y1="1608.9385" x2="-1941.4662" y2="1819.0901" gradientTransform="matrix(1 0 0 1 4647.7744 0)">
					<stop  offset="0" style="stop-color:#40447E"/>
					<stop  offset="0.9964" style="stop-color:#3C3B6B"/>
				</linearGradient>
				<path fill="url(#SVGID_64_)" d="M2401.538,1624.125l305.412,5.919c9.036,0.175,17.312,5.098,21.777,12.955l105.76,186.074
					l-322.552-12.85c-8.853-0.354-16.932-5.146-21.482-12.75l-97.987-163.7C2388.294,1632.806,2393.418,1623.968,2401.538,1624.125z
					"/>
				
					<linearGradient id="SVGID_65_" gradientUnits="userSpaceOnUse" x1="-2153.312" y1="1608.938" x2="-1941.465" y2="1819.0903" gradientTransform="matrix(1 0 0 1 4647.7744 0)">
					<stop  offset="0" style="stop-color:#40447E"/>
					<stop  offset="0.9964" style="stop-color:#3C3B6B"/>
				</linearGradient>
				<path opacity="0.3" fill="url(#SVGID_65_)" d="M2728.728,1643c-4.466-7.857-12.741-12.781-21.777-12.956l-6.693-0.129
					c-0.998,9.858-4.022,18.876-10.056,26.158c-18.833,22.731-50.12,8.71-73.44,32.766c-25.617,26.426-1.952,57.883-24.856,82.479
					c-24.107,25.886-63.09,4.81-107.903,21.375l6.453,10.78c4.55,7.604,12.629,12.397,21.481,12.75l322.552,12.85L2728.728,1643z"/>
			</g>
			<g>
				
					<linearGradient id="SVGID_66_" gradientUnits="userSpaceOnUse" x1="3048.1055" y1="2670.0723" x2="3407.5413" y2="1028.8734" gradientTransform="matrix(-1 0 0 1 6388.0527 0)">
					<stop  offset="0.0036" style="stop-color:#E38DDD"/>
					<stop  offset="1" style="stop-color:#9571F6"/>
				</linearGradient>
				<path fill="url(#SVGID_66_)" d="M2980.544,1778.871c-3.848-10.162-7.696-20.321-11.544-30.483
					c42.526-11.661,101.342-28.886,161.669-50.443c9.448-3.376,20.672-7.558,24.35-17.5c10.314-27.889-55.263-56.788-80.757-117.683
					c-23.578-56.319-10.601-134.476,16.762-143.709c56.939-19.213,258.855,232.124,186.74,338.074
					C3236.999,1817.019,3111.32,1826.555,2980.544,1778.871z"/>
			</g>
			
				<linearGradient id="SVGID_67_" gradientUnits="userSpaceOnUse" x1="3484.6035" y1="1749.0469" x2="3377.1914" y2="1850.2689" gradientTransform="matrix(-1 0 0 1 6388.0527 0)">
				<stop  offset="0" style="stop-color:#FFE5D4"/>
				<stop  offset="0.9964" style="stop-color:#FFE5D4"/>
			</linearGradient>
			<path fill="url(#SVGID_67_)" d="M2969,1748.387c-26.697-14.182-58.654,0.355-60.714,1.328
				c-5.866,2.769-14.403,7.702-23.029,16.513c-0.976,1.331-12.557,17.378-8.338,22.52c3.382,4.12,16.478,0.705,32.218-9.084
				c6.598-0.925,16.42-1.775,28.187-0.691c21.607,1.993,31.506,8.82,39.351,2.927c5.744-4.313,7.701-13.434,5.635-20.214
				C2980.088,1754.402,2973.52,1750.788,2969,1748.387z"/>
		</g>
		<g>
			<g>
				<g enable-background="new    ">
					<g>
						<linearGradient id="SVGID_68_" gradientUnits="userSpaceOnUse" x1="1341.3477" y1="1038.3574" x2="2382.314" y2="1038.3574">
							<stop  offset="0" style="stop-color:#311944"/>
							<stop  offset="1" style="stop-color:#A03976"/>
						</linearGradient>
						<path fill="url(#SVGID_68_)" d="M1933.108,725.674c114.353,6.103,209.893,111.35,214.737,235.027
							c0.461,11.76,0.104,23.3-1.078,34.526c19.439-8.314,40.904-12.5,63.568-11.618c91.437,3.557,167.958,87.968,171.825,188.533
							c3.674,95.545-59.404,172.652-143.949,178.781c-4.464,0.297-8.977,0.454-13.545,0.376l-796.511-16.401
							c-47.147-9.889-84.535-53.828-86.71-105.914c-2.451-58.703,40.794-105.025,96.288-103.409
							c11.677,0.34,23.01,2.771,33.569,6.984c-4.812-18.165-7.76-37.015-8.56-56.341c-5.501-133,91.398-236.292,214.867-230.654
							c22.757,1.039,44.795,5.754,65.648,13.484C1771.333,776.313,1845.001,720.972,1933.108,725.674z"/>
					</g>
					<g>
						<linearGradient id="SVGID_69_" gradientUnits="userSpaceOnUse" x1="1382.6143" y1="1022.9609" x2="2418.8818" y2="1022.9609">
							<stop  offset="0" style="stop-color:#FF9085"/>
							<stop  offset="1" style="stop-color:#FB6FBB"/>
						</linearGradient>
						<path fill="url(#SVGID_69_)" d="M1971.686,710.84c113.839,6.188,208.95,111.286,213.77,234.695
							c0.459,11.734,0.103,23.249-1.074,34.449c19.354-8.278,40.723-12.435,63.287-11.535
							c91.032,3.631,167.216,87.928,171.063,188.278c3.656,95.34-59.149,172.22-143.321,178.256
							c-4.444,0.293-8.938,0.444-13.485,0.362l-792.908-17.118c-46.928-9.911-84.14-53.784-86.303-105.751
							c-2.438-58.57,40.607-104.745,95.844-103.083c11.623,0.35,22.903,2.786,33.415,6.999c-4.789-18.127-7.724-36.937-8.52-56.219
							c-5.47-132.7,90.986-235.67,213.89-229.936c22.652,1.057,44.591,5.78,65.35,13.512
							C1810.638,761.225,1883.976,706.072,1971.686,710.84z"/>
					</g>
				</g>
			</g>
			<g>
				<path fill="#FFFFFF" d="M1962.002,976.234l-14.262,0.117c-1.146-6.206-2.821-12.232-5.031-18.011l12.367-6.964
					c3.375-1.901,4.532-6.067,2.583-9.307l-12.193-20.275c-1.952-3.245-6.276-4.339-9.66-2.442l-12.52,7.02
					c-4.172-4.733-8.763-9.115-13.73-13.087l7.259-12.116c1.958-3.267,0.796-7.431-2.596-9.3l-21.235-11.712
					c-3.4-1.875-7.751-0.745-9.716,2.526l-7.294,12.147c-6.04-2.08-12.332-3.651-18.813-4.715v-14.067
					c0-3.777-3.194-6.832-7.14-6.823l-24.702,0.054c-3.957,0.009-7.166,3.084-7.166,6.87v14.098
					c-6.514,1.111-12.847,2.731-18.933,4.863l-7.365-12.156c-1.986-3.277-6.385-4.39-9.827-2.485l-21.553,11.934
					c-3.45,1.91-4.633,6.121-2.641,9.402l7.383,12.155c-5.051,4.054-9.724,8.521-13.976,13.344l-12.781-6.96
					c-3.46-1.884-7.886-0.734-9.885,2.57l-12.512,20.68c-2.002,3.31-0.814,7.517,2.654,9.397l12.681,6.875
					c-2.264,5.882-3.98,12.008-5.156,18.31l-14.644,0.121c-4.006,0.033-7.257,3.147-7.257,6.957v23.82
					c0,3.809,3.251,6.863,7.257,6.822l14.526-0.15c1.144,6.315,2.841,12.443,5.084,18.319l-12.491,7.004
					c-3.469,1.944-4.656,6.174-2.654,9.446l12.512,20.448c1.999,3.268,6.425,4.335,9.885,2.387l12.406-6.986
					c4.279,4.823,9.001,9.267,14.102,13.29l-7.134,11.876c-1.992,3.318-0.81,7.507,2.641,9.353l21.553,11.535
					c3.442,1.841,7.841,0.646,9.827-2.667l7.053-11.771c6.181,2.069,12.621,3.6,19.245,4.606v13.482
					c0,3.785,3.209,6.801,7.166,6.736l24.702-0.404c3.945-0.064,7.14-3.178,7.14-6.955v-13.453
					c6.59-1.205,12.989-2.924,19.121-5.169l6.986,11.502c1.965,3.235,6.315,4.285,9.716,2.347l21.235-12.106
					c3.392-1.933,4.554-6.118,2.596-9.349l-7.013-11.575c5.015-4.127,9.653-8.658,13.853-13.548l12.151,6.588
					c3.384,1.834,7.708,0.66,9.66-2.621l12.193-20.502c1.949-3.276,0.792-7.42-2.583-9.258l-12.183-6.634
					c2.189-5.855,3.847-11.945,4.961-18.207l14.147-0.146c3.895-0.041,7.051-3.115,7.051-6.869v-23.47
					C1969.053,979.218,1965.896,976.202,1962.002,976.234z M1837.678,927.1c39.802-0.216,71.938,30.438,71.938,68.464
					s-32.137,69.276-71.938,69.8c-39.98,0.526-72.521-30.123-72.521-68.458S1797.697,927.317,1837.678,927.1z"/>
				<path fill="#FFFFFF" d="M2136.23,1137.533l-10.565,0.087c-0.851-4.598-2.091-9.063-3.729-13.345l9.163-5.16
					c2.5-1.408,3.357-4.495,1.913-6.895l-9.034-15.022c-1.446-2.404-4.65-3.215-7.156-1.81l-9.275,5.201
					c-3.092-3.507-6.493-6.754-10.174-9.697l5.379-8.976c1.449-2.42,0.589-5.506-1.924-6.891l-15.733-8.678
					c-2.52-1.389-5.742-0.551-7.198,1.872l-5.405,9c-4.474-1.541-9.137-2.706-13.938-3.494v-10.423c0-2.798-2.368-5.061-5.291-5.055
					l-18.302,0.04c-2.932,0.007-5.31,2.285-5.31,5.089v10.445c-4.825,0.823-9.518,2.024-14.027,3.603l-5.457-9.007
					c-1.472-2.428-4.729-3.252-7.28-1.841l-15.968,8.842c-2.558,1.416-3.434,4.535-1.957,6.966l5.47,9.006
					c-3.742,3.003-7.205,6.313-10.354,9.887l-9.47-5.157c-2.563-1.396-5.842-0.543-7.323,1.905l-9.271,15.322
					c-1.482,2.452-0.603,5.569,1.966,6.962l9.396,5.094c-1.678,4.358-2.947,8.897-3.82,13.566l-10.849,0.089
					c-2.969,0.024-5.376,2.332-5.376,5.154v17.648c0,2.822,2.407,5.085,5.376,5.054l10.763-0.111
					c0.847,4.679,2.104,9.219,3.767,13.573l-9.256,5.189c-2.568,1.44-3.448,4.574-1.966,6.999l9.271,15.15
					c1.481,2.421,4.76,3.212,7.323,1.769l9.191-5.176c3.171,3.573,6.669,6.866,10.448,9.846l-5.285,8.799
					c-1.477,2.458-0.601,5.562,1.957,6.93l15.968,8.545c2.551,1.364,5.809,0.479,7.28-1.976l5.226-8.722
					c4.58,1.533,9.352,2.667,14.259,3.413v9.989c0,2.805,2.378,5.039,5.31,4.991l18.302-0.3c2.923-0.047,5.291-2.354,5.291-5.153
					v-9.967c4.882-0.893,9.623-2.167,14.166-3.83l5.177,8.521c1.456,2.397,4.679,3.175,7.198,1.739l15.733-8.97
					c2.513-1.432,3.373-4.533,1.924-6.927l-5.196-8.576c3.716-3.058,7.152-6.415,10.263-10.037l9.004,4.881
					c2.506,1.358,5.71,0.489,7.156-1.942l9.034-15.19c1.444-2.427,0.587-5.498-1.913-6.86l-9.026-4.915
					c1.622-4.338,2.85-8.85,3.676-13.49l10.481-0.108c2.886-0.03,5.224-2.308,5.224-5.089v-17.389
					C2141.454,1139.744,2139.116,1137.509,2136.23,1137.533z M2044.118,1101.129c29.49-0.16,53.3,22.551,53.3,50.726
					c0,28.174-23.81,51.327-53.3,51.715c-29.622,0.39-53.731-22.318-53.731-50.721S2014.496,1101.29,2044.118,1101.129z"/>
			</g>
		</g>
		<g>
			
				<linearGradient id="SVGID_70_" gradientUnits="userSpaceOnUse" x1="2181.4492" y1="2571.4434" x2="2995.2803" y2="2571.4434" gradientTransform="matrix(-0.9794 0.202 0.202 0.9794 2807.5859 -320.0833)">
				<stop  offset="0" style="stop-color:#444B8C"/>
				<stop  offset="0.9964" style="stop-color:#26264F"/>
			</linearGradient>
			<path fill="url(#SVGID_70_)" d="M426.013,2932.002l-6.363-10.834c-10.146-17.273-3.85-39.226,14.06-48.987l702.143-382.739
				l38.788,72.67l-698.075,383.334C458.762,2955.221,436.127,2949.222,426.013,2932.002z"/>
			
				<linearGradient id="SVGID_71_" gradientUnits="userSpaceOnUse" x1="1430.873" y1="2314.5625" x2="2270.5947" y2="2314.5625" gradientTransform="matrix(-0.9794 0.202 0.202 0.9794 2807.5859 -320.0833)">
				<stop  offset="0" style="stop-color:#444B8C"/>
				<stop  offset="0.9964" style="stop-color:#26264F"/>
			</linearGradient>
			<path fill="url(#SVGID_71_)" d="M1665.475,2703.475c-200.292,113.831-455.395,39.633-568.969-172.01
				c-116.307-216.732-37.396-488.369,175.248-600.083c208.813-109.701,461.411-19.612,565.366,194.879
				C1938.711,2335.874,1862.304,2591.609,1665.475,2703.475z M1635.152,2644.012c166.304-93.957,230.64-309.746,144.396-486.252
				c-87.931-179.959-300.241-254.534-475.016-162.1c-177.454,93.852-243.558,320.854-146.938,502.381
				C1252.31,2675.99,1466.388,2739.359,1635.152,2644.012z"/>
			<path opacity="0.3" fill="#D8DEE8" d="M1135.853,2489.441l-89.526,48.801c-0.272,31.819-9.415,51.904-20.049,65.18
				c-40.003,49.951-113.432,19.615-193.648,85.056c-40.254,32.839-28.594,46.048-67.487,71.19
				c-64.3,41.565-104.053,10.557-160.818,48.026c-57.416,37.899-52.445,93.188-88.331,98.568
				c-15.353,2.302-37.173-4.711-67.599-42.087l-14.685,8.005c-17.909,9.762-24.206,31.713-14.06,48.989l6.363,10.832
				c10.115,17.219,32.749,23.218,50.551,13.441l698.076-383.333L1135.853,2489.441z"/>
			
				<linearGradient id="SVGID_72_" gradientUnits="userSpaceOnUse" x1="-6807.1812" y1="3893.4395" x2="-7229.9937" y2="3420.0347" gradientTransform="matrix(0.952 0.3062 -0.3062 0.952 9341.4844 1137.7783)">
				<stop  offset="0" style="stop-color:#444B8C"/>
				<stop  offset="0.9964" style="stop-color:#26264F"/>
			</linearGradient>
			<path fill="url(#SVGID_72_)" d="M1683.988,2719.889c-200.29,113.833-455.395,39.634-568.97-172.01
				c-116.306-216.73-37.395-488.367,175.25-600.082c208.812-109.701,461.41-19.611,565.365,194.88
				C1957.226,2352.289,1880.817,2608.024,1683.988,2719.889z M1653.666,2660.427c166.304-93.957,230.64-309.745,144.396-486.251
				c-87.932-179.959-300.242-254.535-475.017-162.1c-177.454,93.852-243.557,320.854-146.938,502.381
				C1270.824,2692.406,1484.901,2755.773,1653.666,2660.427z"/>
			
				<linearGradient id="SVGID_73_" gradientUnits="userSpaceOnUse" x1="-7259.5957" y1="4128.7852" x2="-7052.5215" y2="3301.4673" gradientTransform="matrix(0.952 0.3062 -0.3062 0.952 9341.4844 1137.7783)">
				<stop  offset="0" style="stop-color:#444B8C"/>
				<stop  offset="0.9964" style="stop-color:#26264F"/>
			</linearGradient>
			<path fill="url(#SVGID_73_)" d="M1673.288,2698.904c-189.165,107.285-429.752,36.871-536.628-162.865
				c-109.296-204.259-34.921-460.06,165.226-565.459c196.748-103.608,435.106-19.053,533.422,183.219
				C1931.51,2351.723,1859.363,2593.372,1673.288,2698.904z M1653.666,2660.427c166.304-93.957,230.64-309.745,144.396-486.251
				c-87.932-179.959-300.242-254.535-475.017-162.1c-177.454,93.852-243.557,320.854-146.938,502.381
				C1270.824,2692.406,1484.901,2755.773,1653.666,2660.427z"/>
		</g>
	</g>
</g>
</svg>
